<svg xmlns="http://www.w3.org/2000/svg" viewBox="0 0 151.68 33.63"><title>express</title><g id="Layer_2" data-name="Layer 2"><g id="Layer_1-2" data-name="Layer 1"><path d="M13.78,13.25H1V25H15.57V26H0V.35H15.57v1H1v11H13.78Z"/><path d="M25.58,15.36l6.06-8.43h1.2l-6.68,9.26,7,9.76H32L25.56,17,19.13,26H18l7-9.76L18.3,6.93h1.19Z"/><path d="M51.73,16.61a11.78,11.78,0,0,1-1.91,7.07A6.15,6.15,0,0,1,44.6,26.3a8.25,8.25,0,0,1-3.85-.88A6.6,6.6,0,0,1,38.11,23V33.26h-1V6.93h1v3.39a7,7,0,0,1,2.65-2.78,7.51,7.51,0,0,1,3.8-1,6.23,6.23,0,0,1,5.26,2.56,11.83,11.83,0,0,1,1.91,7.18Zm-1-.37a11,11,0,0,0-1.63-6.41,5.25,5.25,0,0,0-4.56-2.31,6.64,6.64,0,0,0-4.06,1.24,6.86,6.86,0,0,0-2.41,3.56v8.9a6,6,0,0,0,2.42,3.05,7.39,7.39,0,0,0,4.08,1.08A5.23,5.23,0,0,0,49.15,23Q50.77,20.71,50.77,16.24Z"/><path d="M65.29,7.63l-1.24-.11A5.64,5.64,0,0,0,60,9.1a7.79,7.79,0,0,0-2.14,4.39V26h-1v-19h1v4a7.11,7.11,0,0,1,2.32-3.15,6.32,6.32,0,0,1,3.88-1.16,3.78,3.78,0,0,1,1.34.2Z"/><path d="M75.45,26.3a7.69,7.69,0,0,1-4.23-1.24,8.52,8.52,0,0,1-3-3.4,10.62,10.62,0,0,1-1.09-4.8v-.79a11,11,0,0,1,1.06-4.84,8.44,8.44,0,0,1,2.9-3.43,7.1,7.1,0,0,1,4-1.23A6.68,6.68,0,0,1,80.3,8.84a8.66,8.66,0,0,1,2,6v1H68.06v1a9.58,9.58,0,0,0,1,4.29,7.58,7.58,0,0,0,2.69,3.09,6.64,6.64,0,0,0,3.72,1.13,7.52,7.52,0,0,0,3.26-.64,6.65,6.65,0,0,0,2.38-2l.67.47A7.19,7.19,0,0,1,75.45,26.3ZM75.09,7.52a6.21,6.21,0,0,0-4.71,2.07,8.77,8.77,0,0,0-2.26,5.26H81.37v-.22a8,8,0,0,0-.82-3.6A6.17,6.17,0,0,0,78.3,8.45,5.74,5.74,0,0,0,75.09,7.52Z"/><path d="M98.47,21.29q0-3.46-5.9-4.71a11.65,11.65,0,0,1-4.94-1.95,4,4,0,0,1-1.39-3.26A4.17,4.17,0,0,1,88,7.93a7.38,7.38,0,0,1,4.6-1.36A7.75,7.75,0,0,1,97.54,8a4.79,4.79,0,0,1,1.86,4h-1a3.92,3.92,0,0,0-1.62-3.2,7.62,7.62,0,0,0-8.17-.2,3.28,3.28,0,0,0-1.46,2.73,3.33,3.33,0,0,0,.54,2,4.72,4.72,0,0,0,1.78,1.32,18.15,18.15,0,0,0,3.58,1.13,15.21,15.21,0,0,1,3.73,1.29,5.07,5.07,0,0,1,2,1.74,4.69,4.69,0,0,1,.61,2.47,4.32,4.32,0,0,1-1.84,3.63,8,8,0,0,1-4.84,1.37,8.53,8.53,0,0,1-5.16-1.45,4.49,4.49,0,0,1-2-3.74h.95a3.92,3.92,0,0,0,1.77,3.12,7.61,7.61,0,0,0,4.4,1.12,6.75,6.75,0,0,0,4.14-1.19A3.5,3.5,0,0,0,98.47,21.29Z"/><path d="M116.38,21.29c0-2.31-2-3.88-5.9-4.71a11.65,11.65,0,0,1-4.94-1.95,4,4,0,0,1-1.39-3.26,4.15,4.15,0,0,1,1.77-3.44,7.35,7.35,0,0,1,4.59-1.36A7.75,7.75,0,0,1,115.45,8a4.77,4.77,0,0,1,1.87,4h-1a3.92,3.92,0,0,0-1.62-3.2,7.62,7.62,0,0,0-8.17-.2,3.31,3.31,0,0,0-1.46,2.73,3.33,3.33,0,0,0,.54,2,4.72,4.72,0,0,0,1.78,1.32A18.28,18.28,0,0,0,111,15.8a15.12,15.12,0,0,1,3.72,1.29,5,5,0,0,1,2,1.74,4.69,4.69,0,0,1,.61,2.47,4.32,4.32,0,0,1-1.84,3.63,7.93,7.93,0,0,1-4.84,1.37,8.47,8.47,0,0,1-5.15-1.45,4.46,4.46,0,0,1-2-3.74h.94a4,4,0,0,0,1.77,3.12,7.61,7.61,0,0,0,4.4,1.12,6.75,6.75,0,0,0,4.14-1.19A3.5,3.5,0,0,0,116.38,21.29Z"/><path d="M132.38,6.93V28.21a5.64,5.64,0,0,1-1.32,4,4.87,4.87,0,0,1-3.69,1.39,4.6,4.6,0,0,1-1.72-.35l0-.92a4.75,4.75,0,0,0,1.67.32,3.85,3.85,0,0,0,3-1.17,4.82,4.82,0,0,0,1-3.3V6.93ZM131,1a.94.94,0,0,1,.28-.69A.92.92,0,0,1,132,0a1,1,0,0,1,.7.29A.94.94,0,0,1,133,1a.94.94,0,0,1-.29.69A1,1,0,0,1,132,2a.91.91,0,0,1-.68-.28A.94.94,0,0,1,131,1Z"/><path d="M150.73,21.29q0-3.46-5.9-4.71a11.65,11.65,0,0,1-4.94-1.95,4,4,0,0,1-1.39-3.26,4.17,4.17,0,0,1,1.76-3.44,7.38,7.38,0,0,1,4.6-1.36A7.75,7.75,0,0,1,149.8,8a4.79,4.79,0,0,1,1.86,4h-1a3.92,3.92,0,0,0-1.62-3.2,7.62,7.62,0,0,0-8.17-.2,3.28,3.28,0,0,0-1.46,2.73,3.33,3.33,0,0,0,.54,2,4.72,4.72,0,0,0,1.78,1.32,18.15,18.15,0,0,0,3.58,1.13,15.21,15.21,0,0,1,3.73,1.29,5.07,5.07,0,0,1,2,1.74,4.69,4.69,0,0,1,.61,2.47,4.32,4.32,0,0,1-1.84,3.63A8,8,0,0,1,145,26.3a8.53,8.53,0,0,1-5.16-1.45,4.49,4.49,0,0,1-2-3.74h1a3.92,3.92,0,0,0,1.77,3.12,7.61,7.61,0,0,0,4.4,1.12,6.75,6.75,0,0,0,4.14-1.19A3.5,3.5,0,0,0,150.73,21.29Z"/></g></g></svg>