<svg xmlns="http://www.w3.org/2000/svg" viewBox="0 0 213.14 56.31"><defs><style>.cls-1{fill:#10aa50;}.cls-2{fill:#b8c4c2;}.cls-3{fill:#12924f;}.cls-4{fill:#21313c;}</style></defs><title>mongo</title><g id="Layer_2" data-name="Layer 2"><g id="Layer_1-2" data-name="Layer 1"><path class="cls-1" d="M24.83,22.41c-3-13.09-9.15-16.57-10.73-19A29.08,29.08,0,0,1,12.37,0a3.42,3.42,0,0,1-1.22,2.78C9.16,4.55.74,11.41,0,26.28-.63,40.15,10.22,48.7,11.65,49.58a3.2,3.2,0,0,0,3.11-.49C20,45.5,27.13,35.93,24.83,22.41"/><path class="cls-2" d="M12.82,42.2a28.49,28.49,0,0,1-1.16,7.38s.46,3.27.78,6.73h1.13a62.89,62.89,0,0,1,1.23-7.24C13.34,48.34,12.88,45.21,12.82,42.2Z"/><path class="cls-3" d="M14.8,49.07h0c-1.48-.69-1.91-3.89-2-6.87a140.54,140.54,0,0,0,.31-14.8c-.07-2.59,0-24-.63-27.11A24.89,24.89,0,0,0,14.1,3.37c1.58,2.47,7.76,6,10.73,19C27.13,35.91,20,45.45,14.8,49.07Z"/><path class="cls-4" d="M209.92,44.34a3.22,3.22,0,1,1,3.22-3.26,3.17,3.17,0,0,1-3.09,3.25h-.13m0-6.14a2.93,2.93,0,1,0,2.91,2.94h0A2.87,2.87,0,0,0,210,38.2h-.09m.78,4.95-.83-1.79h-.67v1.79h-.49V39.08h1.2c.89,0,1.27.39,1.27,1.14a1,1,0,0,1-.81,1.08l.86,1.85Zm-1.48-2.21h.7c.57,0,.79-.19.79-.71s-.21-.69-.85-.69h-.64Z"/><path class="cls-4" d="M162.08,41.41a7.43,7.43,0,0,0,4.14,1,8.07,8.07,0,0,0,5.84-2.09c1.93-1.76,3.27-4.46,3.27-8.76,0-4.13-1.58-7.49-4.81-9.45a12.79,12.79,0,0,0-6.87-1.6,5.91,5.91,0,0,0-2,.24,1.15,1.15,0,0,0-.37.59c-.08.73-.08,6.34-.08,9.66s0,8.13.08,8.71a2.47,2.47,0,0,0,.83,1.72m-8.26-22.76c.7,0,3.37.12,4.62.12,2.32,0,3.93-.12,8.28-.12a13.38,13.38,0,0,1,8.89,2.86,11.91,11.91,0,0,1,4.07,9.38c0,5.52-2.52,8.72-5.05,10.52s-5.79,2.94-10.46,2.94c-2.48,0-6.75-.08-10.31-.12h-.07c-.17-.33.3-1.6.59-1.64a5.1,5.1,0,0,0,1.67-.33c.75-.31.93-.69,1-2,.13-2.54.09-5.57.09-9,0-2.45,0-7.24,0-8.76-.13-1.26-.66-1.59-1.75-1.84-.77-.16-1.54-.28-2.32-.37a4,4,0,0,1,.76-1.59"/><path class="cls-4" d="M189.94,20.73c-.16,0-.37.45-.37.65,0,1.47-.08,5.32-.08,8a.25.25,0,0,0,.21.21c.53,0,1.86.08,3,.08a7.22,7.22,0,0,0,3-.45,3.87,3.87,0,0,0,1.93-3.64c0-3.57-2.48-4.92-6.16-4.92a10.55,10.55,0,0,0-1.49.09m9.39,16.37c0-3.6-2.65-5.65-7.49-5.65a19.2,19.2,0,0,0-2.11,0c-.13,0-.25.12-.25.21,0,2.58,0,6.71.08,8.35a2.82,2.82,0,0,0,1.2,2,8.34,8.34,0,0,0,3.19.45c2.86,0,5.38-1.59,5.38-5.36M182.46,18.72c.38,0,1.48.12,4.29.12,2.65,0,4.81-.08,7.37-.08,3.18,0,7.57,1.15,7.57,5.89a5.73,5.73,0,0,1-3.81,5.12c-.12,0-.12.12,0,.16,3.07.78,5.76,2.67,5.76,6.27s-2.2,5.73-5.38,7.12a17.12,17.12,0,0,1-6.79,1.15c-1.86,0-6.85-.2-9.62-.17-.29-.12.26-1.43.51-1.63a7.45,7.45,0,0,0,1.88-.3c1-.24,1.11-.56,1.23-2,.08-1.27.08-5.81.08-9,0-4.43,0-7.41,0-8.89,0-1.14-.45-1.51-1.24-1.72-.62-.12-1.65-.24-2.48-.36-.21-.21.43-1.44.64-1.6"/><path class="cls-4" d="M34,44.34a1.83,1.83,0,0,1-.12-.83A1,1,0,0,1,34,43a14,14,0,0,0,1.59-.33c.73-.18,1-.58,1.05-1.51.12-2.21.13-6.35.09-9.26v-.09a1.18,1.18,0,0,0-.39-1,8.67,8.67,0,0,0-2.2-1c-.34-.1-.54-.28-.53-.49s.23-.47.68-.56a25.92,25.92,0,0,0,5.58-1.44.81.81,0,0,1,.17.58,2.71,2.71,0,0,1,0,.4c0,.42-.07.88-.07,1.35a.3.3,0,0,0,.34.26.31.31,0,0,0,.18-.09A10.32,10.32,0,0,1,46,27.27a4.78,4.78,0,0,1,4.24,2.6.27.27,0,0,0,.24.14.25.25,0,0,0,.22-.12c2.16-1.64,4.3-2.62,5.74-2.62,3.38,0,5.41,2.54,5.41,6.79,0,1.22,0,2.77,0,4.21,0,1.27,0,2.45,0,3.28a1.12,1.12,0,0,0,.66.86,9.07,9.07,0,0,0,2.12.52h0a3.21,3.21,0,0,1-.22,1.38l-.92,0c-.7,0-1.67-.09-2.79-.09-2.25,0-3.43,0-4.55.12a3.21,3.21,0,0,1,0-1.38,11.35,11.35,0,0,0,1.38-.3c.71-.24.92-.56,1-1.51,0-.68.15-6.64-.08-8a3.6,3.6,0,0,0-3.73-3.19,6.63,6.63,0,0,0-3.73,1.42.59.59,0,0,0-.13.36v0a15.61,15.61,0,0,1,.16,3c0,.77,0,1.58,0,2.39,0,1.64,0,3.19,0,4.36a1.11,1.11,0,0,0,.87,1.15l.55.12c.32.08.66.16,1.16.24a2.11,2.11,0,0,1,0,1,.83.83,0,0,1-.14.35c-1.25,0-2.54-.08-4.39-.08-.57,0-1.48,0-2.29,0l-1.63,0a1.62,1.62,0,0,1-.13-.72,1.24,1.24,0,0,1,.13-.66l.5-.1c.44-.07.81-.14,1.16-.23.62-.19.85-.52.89-1.31a61.16,61.16,0,0,0,0-8.38c-.44-2.11-1.64-3.18-3.57-3.18a6.71,6.71,0,0,0-3.72,1.42,1.16,1.16,0,0,0-.35.84v2.17c0,2.64,0,5.92,0,7.34a1.16,1.16,0,0,0,1,1.14,6.94,6.94,0,0,0,.85.17l.67.11a2.86,2.86,0,0,1-.11,1.39c-.36,0-.8,0-1.31-.05-.78,0-1.74-.08-2.84-.08-1.29,0-2.19,0-2.92.08L34,44.34"/><path class="cls-4" d="M75.54,29a3.54,3.54,0,0,0-2,.55c-1.44.88-2.17,2.62-2.17,5.19,0,4.8,2.4,8.15,5.85,8.15A3.69,3.69,0,0,0,79.77,42c1.06-.86,1.62-2.63,1.62-5.09C81.39,32.21,79,29,75.54,29M76.2,44.7c-6.22,0-8.43-4.56-8.43-8.83a7.91,7.91,0,0,1,3.62-6.93A11.11,11.11,0,0,1,77,27.29c4.75,0,8.06,3.41,8.06,8.3a8.57,8.57,0,0,1-3.83,7.58,10.79,10.79,0,0,1-5,1.53"/><path class="cls-4" d="M138.87,29a3.47,3.47,0,0,0-2,.55c-1.44.88-2.17,2.62-2.17,5.19,0,4.8,2.4,8.15,5.84,8.15A3.69,3.69,0,0,0,143.1,42c1.05-.86,1.61-2.63,1.61-5.09,0-4.73-2.35-7.91-5.84-7.91m.66,15.67c-6.22,0-8.43-4.56-8.43-8.83a7.89,7.89,0,0,1,3.62-6.93,11.08,11.08,0,0,1,5.6-1.65c4.74,0,8.06,3.41,8.06,8.29a8.6,8.6,0,0,1-3.83,7.59,10.83,10.83,0,0,1-5,1.53"/><path class="cls-4" d="M117.93,28.86c-1.92,0-3.16,1.52-3.16,3.86s1.07,5.13,4.07,5.13a2.92,2.92,0,0,0,1.91-.74,4.78,4.78,0,0,0,1.16-3.37c0-3.05-1.49-4.88-4-4.88M117.69,45a3.21,3.21,0,0,0-1.55.39c-1.52,1-2.22,1.94-2.22,3.06a3.27,3.27,0,0,0,1.28,2.64,6.57,6.57,0,0,0,4.4,1.34c3.72,0,5.38-2,5.38-4a2.83,2.83,0,0,0-2.11-2.83,16.68,16.68,0,0,0-5.18-.62m.25,9.5A8,8,0,0,1,112.73,53a4.88,4.88,0,0,1-1.94-3.62,2.79,2.79,0,0,1,.73-1.84,19.47,19.47,0,0,1,3.37-2.7.18.18,0,0,0,.11-.17.17.17,0,0,0-.13-.17,3.54,3.54,0,0,1-2.39-2.32.16.16,0,0,0,0-.09.54.54,0,0,1,.22-.67c.24-.17.62-.4,1-.64a15.44,15.44,0,0,0,1.67-1.09.27.27,0,0,0,0-.38l-.06,0c-2.54-.86-3.82-2.74-3.82-5.62a5.59,5.59,0,0,1,2.35-4.6,10.65,10.65,0,0,1,5.24-1.78h.1a10.8,10.8,0,0,1,4,.89,6.37,6.37,0,0,0,2.37.38,3.19,3.19,0,0,0,2.56-1,2.25,2.25,0,0,1,.14.73,2.76,2.76,0,0,1-.46,1.68,2.1,2.1,0,0,1-1.59.69H126a5.33,5.33,0,0,1-1-.17l-.16.06c-.05.07,0,.16,0,.26s0,0,0,.06a12.13,12.13,0,0,1,.23,1.57,5.87,5.87,0,0,1-2.47,5.3,8.48,8.48,0,0,1-4.26,1.65h0l-.5,0-.48,0h0c-.28.08-1,.43-1,1.07s.33,1.2,1.91,1.32l1,.07a32,32,0,0,1,5.89.74,4.1,4.1,0,0,1,2.73,3.93c0,2.7-1.93,5.25-5.15,6.8a11.17,11.17,0,0,1-4.86,1.09"/><path class="cls-4" d="M108.42,42.89a7.26,7.26,0,0,1-2.36-.61,1.07,1.07,0,0,1-.29-.58c-.08-1.27-.08-5-.08-7.36a8.76,8.76,0,0,0-1.17-4.92,5,5,0,0,0-4.22-2.21c-1.61,0-3.77,1.11-5.55,2.62,0,0-.31.3-.31-.1s.07-1.22.11-1.74a.86.86,0,0,0-.27-.76,24.74,24.74,0,0,1-5.63,1.47c-.88.17-1.1,1-.16,1.31h0a8,8,0,0,1,2.13.94A1.11,1.11,0,0,1,91,32c0,2.74,0,7-.08,9.25,0,.9-.29,1.23-.95,1.39l.06,0a11.77,11.77,0,0,1-1.53.29,2.21,2.21,0,0,0,0,1.64c.41,0,2.51-.12,4.26-.12,2.4,0,3.64.12,4.26.12a2.32,2.32,0,0,0,.17-1.64,8.83,8.83,0,0,1-1.7-.25c-.66-.16-.83-.49-.87-1.22-.08-1.93-.08-6-.08-8.81A1.62,1.62,0,0,1,95,31.25,5.46,5.46,0,0,1,98.35,30a3.73,3.73,0,0,1,2.52.86,3.51,3.51,0,0,1,1.18,2.31c.17,1.55.12,4.67.12,7.37,0,1.47-.12,1.84-.66,2a6.18,6.18,0,0,1-1.69.33,2.21,2.21,0,0,0,0,1.64c1.07,0,2.32-.12,4.13-.12,2.28,0,3.73.12,4.31.12a2.3,2.3,0,0,0,.17-1.64"/></g></g></svg>