<svg xmlns="http://www.w3.org/2000/svg" viewBox="0 0 1505.32 135.66"><defs><style>.cls-1{fill:#00b7ff;}.cls-1,.cls-2{stroke:#000;stroke-miterlimit:10;stroke-width:4px;}.cls-2{fill:#fff800;}</style></defs><title>ndd</title><g id="Layer_2" data-name="Layer 2"><g id="Layer_1-2" data-name="Layer 1"><path class="cls-1" d="M100.72,16.53,111,4.08l36.09,12.45-4.77,20.82h-9.84L121.3,118.83l-10.51,12.48h-26L55.52,60.52l-11.58,50,14.3,9.3-9.31,11.45H2.52l4.85-20.75L17.93,97.12H21L34.47,37.35H22.06L27,16.93,36.63,4.49,66,16.53,94.29,87.4,106,37.35H95.88Z"/><path class="cls-1" d="M162.89,16.53,173,4.08l41.08,12.45,5.44,8.23L209.3,37.35H197.87l-17,73.21h12.95l5.06,8.27-9.91,12.48H137.75l4.85-20.75,9.72-12.41h5.17l13.8-60.8H158.12Z"/><path class="cls-1" d="M289.07,43.06a22.21,22.21,0,0,0-12.31-3.21,31.3,31.3,0,0,0-10,1.62A37,37,0,0,0,257.65,46a40.83,40.83,0,0,0-7.8,6.92,46.09,46.09,0,0,0-6.06,8.79,47.06,47.06,0,0,0-3.94,10.11,43,43,0,0,0-1.4,10.94A31.81,31.81,0,0,0,240,93.11a23.3,23.3,0,0,0,4.58,8,20.63,20.63,0,0,0,7.2,5.22,23,23,0,0,0,9.42,1.86,25.9,25.9,0,0,0,7.8-1.14,28.29,28.29,0,0,0,6.78-3.14,31,31,0,0,0,5.71-4.69,45.29,45.29,0,0,0,4.7-5.8l24,12a60.49,60.49,0,0,1-21.69,20.93q-13.07,7.31-30.25,7.31a50.08,50.08,0,0,1-19-3.52A43.79,43.79,0,0,1,214.49,105,53.12,53.12,0,0,1,211,85.28a72.58,72.58,0,0,1,2.72-20.18,70.55,70.55,0,0,1,7.54-17.3,68.51,68.51,0,0,1,11.35-14.09,70.72,70.72,0,0,1,30.37-17A65.15,65.15,0,0,1,280,14.41a53.55,53.55,0,0,1,12.72,1.43,44.51,44.51,0,0,1,10.68,4.09,34.37,34.37,0,0,1,7.76,5.57,54.69,54.69,0,0,1,4.65,5.18h14.39l5.08,8.55-9.85,12.2H296A17.24,17.24,0,0,0,289.07,43.06Z"/><path class="cls-1" d="M372.92,133.66a50.06,50.06,0,0,1-19-3.52A43.84,43.84,0,0,1,329.12,105a53.12,53.12,0,0,1-3.52-19.72,72.21,72.21,0,0,1,2.73-20.18,70.16,70.16,0,0,1,7.53-17.3,68.55,68.55,0,0,1,11.36-14.09,70.34,70.34,0,0,1,30.28-17,65.22,65.22,0,0,1,17.08-2.27A51.35,51.35,0,0,1,414.08,18a43,43,0,0,1,14.91,10,44.35,44.35,0,0,1,9.54,15.33,55.33,55.33,0,0,1,3.37,19.69,74.84,74.84,0,0,1-2.54,19.84A70,70,0,0,1,432.21,100a67.53,67.53,0,0,1-25,24.73,69.33,69.33,0,0,1-34.27,9Zm2.88-25.44a30.83,30.83,0,0,0,9.92-1.63,37.43,37.43,0,0,0,9.09-4.51,41.36,41.36,0,0,0,7.79-6.89,44.58,44.58,0,0,0,6.1-8.78,47.5,47.5,0,0,0,4-10.14,42.32,42.32,0,0,0,1.44-11A32.72,32.72,0,0,0,412.56,55a23.1,23.1,0,0,0-4.5-8,20.21,20.21,0,0,0-7.2-5.23,23.47,23.47,0,0,0-9.54-1.85,31.9,31.9,0,0,0-14.69,3.55,40.94,40.94,0,0,0-12.19,9.54,47.8,47.8,0,0,0-8.33,13.71A42.82,42.82,0,0,0,353,82.78a31.81,31.81,0,0,0,1.59,10.33,23.3,23.3,0,0,0,4.58,8,20.59,20.59,0,0,0,7.19,5.22A23.1,23.1,0,0,0,375.8,108.22Z"/><path class="cls-1" d="M637.48,110.56l-8.63-94L606.14,4.08,595.83,16.53l-52.17,94h-5.4l4.88-21.42h-25.6l-3.71,15.22a9.35,9.35,0,0,1-2.69,4.42,6.58,6.58,0,0,1-4.65,1.78H484.76l17-73.21h11.57l10.07-12.59-5.29-8.23L476.92,4.08,467,16.53l-4.78,20.82h13l-13.8,60.8h-5.17l-9.58,12.41-4.84,20.75H575.55l9.92-12.48-5.16-8.27H570.7l8.4-15.82,36.35.31v3.1l-9.85,12.41-4.77,20.75h46.34l9.63-11.45-4.79-9.3Zm-46.72-37.7,16.13-30.44,2.26,30.44Z"/><path class="cls-1" d="M655,91,665.3,78.62,682.53,91q-2.06,7.65-1.44,10.83a10.65,10.65,0,0,0,2.53,5.3,12.66,12.66,0,0,0,5.23,3.29,24,24,0,0,0,8,1.17,23.73,23.73,0,0,0,7.61-1.13,17.76,17.76,0,0,0,5.75-3.14,13.51,13.51,0,0,0,3.64-4.77,14.51,14.51,0,0,0,1.24-6A8.39,8.39,0,0,0,714,92.24a10.42,10.42,0,0,0-2.83-3.14,20.08,20.08,0,0,0-4.13-2.31c-1.57-.66-3.23-1.26-5-1.82l-13-4.54a31,31,0,0,1-8.29-4.2,28.84,28.84,0,0,1-6.44-6.32,29.26,29.26,0,0,1-4.2-8.22,31,31,0,0,1-1.52-9.81,36.23,36.23,0,0,1,3.49-16.31,32.14,32.14,0,0,1,9.73-11.66,43.77,43.77,0,0,1,14.91-7,73,73,0,0,1,19-2.34,49.79,49.79,0,0,1,13.62,1.74A38.16,38.16,0,0,1,740,21a22.66,22.66,0,0,1,6.74,6.52,18.26,18.26,0,0,1,2.84,7.23h8.7l5.8,7L753.7,54.08H726.29q1.59-7,.91-9.77a10,10,0,0,0-2.65-4.69,12.71,12.71,0,0,0-5-3,20.45,20.45,0,0,0-6.63-1,33.27,33.27,0,0,0-7,.72,18.2,18.2,0,0,0-5.83,2.27,12,12,0,0,0-4,4,10.83,10.83,0,0,0-1.48,5.76,8.45,8.45,0,0,0,1.25,4.8,10.24,10.24,0,0,0,4,3.26,87.87,87.87,0,0,0,8.22,3.44l15.67,5.76q9.69,3.48,14.16,10.52t4.47,17.19a37.25,37.25,0,0,1-3.67,16.77,36.58,36.58,0,0,1-10.19,12.53A46.27,46.27,0,0,1,713,130.48a68,68,0,0,1-19.72,2.72,50.3,50.3,0,0,1-14.5-2,32.91,32.91,0,0,1-11.09-5.57,21.58,21.58,0,0,1-6.44-7.69,26.5,26.5,0,0,1-2.35-7.57h-8.48Z"/><path class="cls-1" d="M813.36,16.53,823.7,4.12l35.7,12.41a55.2,55.2,0,0,1,19.08,3.18,42.9,42.9,0,0,1,15,9.19,41.38,41.38,0,0,1,9.84,14.81,53.3,53.3,0,0,1,3.52,20,73.74,73.74,0,0,1-2.19,18.13A65.35,65.35,0,0,1,898.24,98a62,62,0,0,1-10.45,13.62,63.52,63.52,0,0,1-14.23,10.53,72.82,72.82,0,0,1-17.83,6.78,89.42,89.42,0,0,1-21.17,2.38H786.79l4.84-20.75,10-12.4h4.23l14.49-60.81H808.52Zm33.55,20.82-17,73.21H838a35.75,35.75,0,0,0,10.72-1.62,40.93,40.93,0,0,0,9.76-4.55,42.93,42.93,0,0,0,8.41-7,46.08,46.08,0,0,0,12.38-31.5,39,39,0,0,0-2-13.4,24.13,24.13,0,0,0-5.37-8.82,19.84,19.84,0,0,0-7.77-4.85,28.63,28.63,0,0,0-9.16-1.47Z"/><path class="cls-1" d="M931.93,16.53,942.54,4.16l87.6,12.37,1.33,26.74-10.34,12.4h-26.5l4.16-18.32H966.92L961.16,62h25.52l5.26,9.56L981.61,84H956.09l-6.21,26.57h30l4.62-20.36,10.43-11.82,16.15,11.82.87,28.71-10.34,12.4H906.8l4.84-20.75L922,98.16l4.32-.23,13.14-60.58H927.16Z"/><path class="cls-1" d="M1123.12,16.53l10.34-12.41,40.84,12.41,5.57,8.1-10.41,12.72h-11.74l-17,73.21H1154l5.49,8.35-10.34,12.4H1098l4.85-20.75,10.33-12.4h4l3.93-17h-50.42l-6.82,29.37h13l5.49,8.35-10.34,12.4h-51.18l4.85-20.75,10.33-12.4,4.34-.29,14-60.52h-13L1046,16.53l10.34-12.41,42.23,0,4.18,20.78-10.34,12.41h-11.58l-5.45,23.39h50.35l5.45-23.39h-12.87Z"/><path class="cls-1" d="M1193.23,16.53h98.2l-9,39.14h-26.5l4.17-18.32h-31.88L1222.46,62H1248l-5.07,22h-25.52l-6.2,26.57h30l4.62-20.36h26.57l-9.46,41.11h-94.8l4.85-20.75h11.73l17-73.21h-13.18Z"/><path class="cls-1" d="M1387.59,40.3l-73.74,70.26h32.55L1350.87,91,1361.51,79,1377.22,91l1.11,27.51-10.42,12.77h-89l5.38-23.7,72.38-70.26H1326l5.87,7.43-10.34,12.4h-26L1305,16.53l10.5-12.41h79.45Z"/><path class="cls-1" d="M1446.05,110.56l9.73-12.79.06-3.43-36.29.4-8.41,15.82h9.62l5.57,8.35L1416,131.31h-46.34l11.7-14.68,2.76-6.07,52.17-94,10.34-12.41,22.67,12.41,8.63,94h14.54l5.49,8.35-10.34,12.4h-46.33Zm-14.84-37.7h18.4l-2.28-30.44Z"/><path class="cls-2" d="M173.23,4.12h51.18l-4.77,20.82H208.21l-17,73.22h13l-4.85,20.75H148.09l4.84-20.75h11.74l17-73.22H168.46Z"/><path class="cls-2" d="M111.06,4.12H157.4l-4.77,20.82h-9.84l-21.66,94h-26L65.86,48.11,54.28,98.16H64l-4.77,20.75H12.86L17.7,98.16H27.93L44.81,24.94H32.39L37.24,4.12H76.31L104.63,75l11.66-50H106.22Z"/><path class="cls-2" d="M299.41,30.66a22.13,22.13,0,0,0-12.31-3.22,31,31,0,0,0-10,1.63A37.07,37.07,0,0,0,268,33.61a41.14,41.14,0,0,0-7.79,6.93,46,46,0,0,0-6.06,8.78,46.54,46.54,0,0,0-3.94,10.11,43.13,43.13,0,0,0-1.4,10.94,31.87,31.87,0,0,0,1.59,10.34,23.26,23.26,0,0,0,4.58,8A20.62,20.62,0,0,0,262.15,94a23.27,23.27,0,0,0,9.43,1.85,26.22,26.22,0,0,0,7.8-1.13,28.32,28.32,0,0,0,6.78-3.15,30.62,30.62,0,0,0,5.71-4.69,45.36,45.36,0,0,0,4.7-5.79l24,12A60.59,60.59,0,0,1,298.88,114q-13.06,7.3-30.25,7.3a49.89,49.89,0,0,1-19-3.52,43.79,43.79,0,0,1-24.83-25.14,53.08,53.08,0,0,1-3.53-19.72A72.26,72.26,0,0,1,224,52.69a71.08,71.08,0,0,1,7.53-17.3,68.82,68.82,0,0,1,11.36-14.08,70.29,70.29,0,0,1,14.24-10.49,71.13,71.13,0,0,1,16.12-6.55A65.65,65.65,0,0,1,290.36,2a53,53,0,0,1,12.72,1.44,44.18,44.18,0,0,1,10.67,4.09,34.13,34.13,0,0,1,7.77,5.56,54.66,54.66,0,0,1,4.65,5.19h14.39L335.79,39H306.33A17.08,17.08,0,0,0,299.41,30.66Z"/><path class="cls-2" d="M383.26,121.25a49.92,49.92,0,0,1-19-3.52,43.79,43.79,0,0,1-24.83-25.14,53.08,53.08,0,0,1-3.52-19.72,72.63,72.63,0,0,1,2.72-20.18,70.72,70.72,0,0,1,7.54-17.3,68.16,68.16,0,0,1,11.36-14.08,70.22,70.22,0,0,1,30.28-17A65.65,65.65,0,0,1,404.92,2a51.33,51.33,0,0,1,19.49,3.56,42.87,42.87,0,0,1,14.92,10,44.31,44.31,0,0,1,9.54,15.33,55.49,55.49,0,0,1,3.37,19.68,75.25,75.25,0,0,1-2.54,19.84,70.23,70.23,0,0,1-7.15,17.19,67.53,67.53,0,0,1-25,24.72,69.26,69.26,0,0,1-34.26,9Zm2.88-25.44a30.83,30.83,0,0,0,9.92-1.63,36.8,36.8,0,0,0,9.08-4.5,41.46,41.46,0,0,0,7.8-6.89A45.31,45.31,0,0,0,419,74a48.11,48.11,0,0,0,4-10.15,42.21,42.21,0,0,0,1.44-11,32.65,32.65,0,0,0-1.55-10.33,23.17,23.17,0,0,0-4.51-8,19.94,19.94,0,0,0-7.19-5.22,23.53,23.53,0,0,0-9.54-1.86A31.91,31.91,0,0,0,387,31a40.49,40.49,0,0,0-12.19,9.54,47.88,47.88,0,0,0-8.33,13.7,42.86,42.86,0,0,0-3.1,16.13,31.87,31.87,0,0,0,1.59,10.34,23.1,23.1,0,0,0,4.58,8A20.62,20.62,0,0,0,376.71,94,23.23,23.23,0,0,0,386.14,95.81Z"/><path class="cls-2" d="M647.82,98.15l-8.64-94h-33L554,98.15h-5.41l4.88-21.41H527.88L524.17,92a9.38,9.38,0,0,1-2.69,4.43,6.57,6.57,0,0,1-4.65,1.77H495.1l17-73.21h11.58l4.78-20.82H477.31l-4.78,20.82h13l-17,73.21H457l-4.85,20.75H585.88l4.77-20.75H581l8.41-15.81h31.64l1.21,15.81h-6.36l-4.76,20.75H657.5l4.85-20.75ZM601.1,60.45,617.23,30l2.26,30.43Z"/><path class="cls-2" d="M665.3,78.62h27.56q-2,7.65-1.43,10.83a10.65,10.65,0,0,0,2.53,5.3,12.67,12.67,0,0,0,5.23,3.3,23.91,23.91,0,0,0,8,1.17,23.63,23.63,0,0,0,7.61-1.14,17.34,17.34,0,0,0,5.76-3.14,13.37,13.37,0,0,0,3.63-4.77,14.33,14.33,0,0,0,1.25-6,8.37,8.37,0,0,0-1.06-4.31,10.49,10.49,0,0,0-2.84-3.15,19.73,19.73,0,0,0-4.12-2.31c-1.57-.65-3.23-1.26-5-1.81l-13-4.55a30.52,30.52,0,0,1-8.29-4.2,28.43,28.43,0,0,1-10.64-14.54,31,31,0,0,1-1.52-9.8,36.12,36.12,0,0,1,3.49-16.32,32.22,32.22,0,0,1,9.73-11.66,43.76,43.76,0,0,1,14.91-7,72.53,72.53,0,0,1,19-2.35,49.87,49.87,0,0,1,13.63,1.74A38.17,38.17,0,0,1,750.3,8.55,22.47,22.47,0,0,1,757,15.06a18.22,18.22,0,0,1,2.84,7.23h8.71L764,41.68H736.63q1.59-7.05.91-9.77a10,10,0,0,0-2.65-4.7,12.78,12.78,0,0,0-5-3,20.45,20.45,0,0,0-6.63-1,33.27,33.27,0,0,0-7,.72,18.43,18.43,0,0,0-5.83,2.27,11.9,11.9,0,0,0-4,4A10.77,10.77,0,0,0,705,35.92a8.48,8.48,0,0,0,1.25,4.81,10.22,10.22,0,0,0,4,3.25,83.68,83.68,0,0,0,8.22,3.45l15.67,5.75q9.69,3.49,14.16,10.53t4.47,17.19a37.12,37.12,0,0,1-3.68,16.77A36.55,36.55,0,0,1,738.9,110.2a46.26,46.26,0,0,1-15.56,7.87,68,68,0,0,1-19.72,2.73,50.3,50.3,0,0,1-14.5-2,32.87,32.87,0,0,1-11.1-5.57,21.54,21.54,0,0,1-6.43-7.68A26.38,26.38,0,0,1,669.24,98h-8.48Z"/><path class="cls-2" d="M823.7,4.12h46A55.28,55.28,0,0,1,888.82,7.3a42.93,42.93,0,0,1,15,9.2,41.47,41.47,0,0,1,9.84,14.8,53.34,53.34,0,0,1,3.52,20A73.82,73.82,0,0,1,915,69.43a65.28,65.28,0,0,1-6.44,16.16,62,62,0,0,1-10.45,13.63,63.18,63.18,0,0,1-14.23,10.52,72.89,72.89,0,0,1-17.84,6.78,89.33,89.33,0,0,1-21.16,2.39H797.13L802,98.16h11.74l17-73.22H818.86Zm33.54,20.82-17,73.22h8.1A35.38,35.38,0,0,0,859,96.53,40.79,40.79,0,0,0,868.79,92a43.27,43.27,0,0,0,8.41-7A46,46,0,0,0,888.06,65.3a45.63,45.63,0,0,0,1.52-11.81,39.2,39.2,0,0,0-2-13.4,24,24,0,0,0-5.38-8.83,19.71,19.71,0,0,0-7.76-4.84,28.4,28.4,0,0,0-9.16-1.48Z"/><path class="cls-2" d="M942.27,4.12h98.21l-9,39.15H1005l4.16-18.33H977.25L971.5,49.63H997l-5.08,21.95H966.43l-6.21,26.58h30l4.62-20.37h26.58l-9.47,41.12h-94.8L922,98.16h11.74l17-73.22H937.5Z"/><path class="cls-2" d="M1133.46,4.12h51.18l-4.85,20.82h-11.73l-17,73.22h13.25l-4.85,20.75h-51.18l4.84-20.75h11.44l6.81-29.38H1081l-6.81,29.38h12.95l-4.85,20.75h-51.18l4.84-20.75h11.74l17-73.22h-13l4.77-20.82h51.18l-4.77,20.82h-11.58l-5.46,23.4h50.36l5.45-23.4h-12.87Z"/><path class="cls-2" d="M1203.57,4.12h98.2l-9,39.15h-26.5l4.17-18.33h-31.88l-5.76,24.69h25.52l-5.07,21.95h-25.52l-6.21,26.58h30l4.62-20.37h26.57l-9.46,41.12h-94.8l4.85-20.75H1195l17-73.22H1198.8Z"/><path class="cls-2" d="M1397.93,27.89l-73.75,70.27h32.56l4.47-19.54h26.35l-9.31,40.29h-89l5.37-23.7L1367,24.94h-30.67l-4.46,19.84h-26.05l9.47-40.66h88.05Z"/><path class="cls-2" d="M1456.38,98.16h6.36l-1.21-15.83h-31.65l-8.4,15.83h9.62l-4.77,20.75H1380l4.77-20.75h9.69l52.17-94h33l8.63,94h14.54L1498,118.91h-46.34Zm-14.84-37.71h18.4L1457.67,30Z"/></g></g></svg>