<svg xmlns="http://www.w3.org/2000/svg" viewBox="0 0 537.23 189.48"><defs><style>.cls-1{fill:#00b7ff;}.cls-2{fill:#fff800;}</style></defs><title>ndm</title><g id="Layer_2" data-name="Layer 2"><g id="Layer_1-2" data-name="Layer 1"><path class="cls-1" d="M88.37,11.06l6.86-8.33,24.17,8.33-3.2,14h-6.59l-7.46,54.56-7,8.35H77.67L58.1,40.52,50.35,74l9.58,6.23-6.24,7.66H22.62L25.86,74l7.07-9H35l9-40H35.7L39,11.34,45.45,3,65.1,11.06l19,47.46L91.87,25H85.13Z"/><path d="M95.74,89.26h-19L58.46,44.9l-6.6,28.52L61.9,80l-7.57,9.31H20.93l3.69-15.82,7.66-9.75h1.66l8.4-37.34H34l3.78-15.61L45,1.38,66.13,10l17.59,44,6.46-27.71H83.44l3.7-15.89,7.64-9.3,26.19,9-3.7,16.16h-6.49l-7.36,53.78ZM78.57,86.58H94.49L100.88,79l7.56-55.33h6.7l2.68-11.73L95.67,4.3,89.6,11.67l-2.79,12h6.74L84.4,63,64.07,12.09,45.89,4.63l-5.65,7.3L37.4,23.67h8.28l-9.6,42.7h-2.5L27.1,74.62l-2.8,12H53.06l4.89-6-9.12-5.93,8.91-38.5Z"/><path class="cls-1" d="M130,11.06l6.77-8.33,27.5,8.33,3.65,5.52L161.07,25h-7.66L142,74h8.67l3.38,5.54-6.63,8.35H113.16L116.41,74l6.5-8.31h3.47L135.62,25H126.8Z"/><path d="M148.08,89.26H111.47l3.7-15.82,7.09-9.06h3l8.63-38h-8.82l3.64-15.89,7.53-9.27,28.82,8.73,4.45,6.74-7.85,9.69h-7.23L143.69,72.69h7.74l4.26,7Zm-33.23-2.68h31.94l5.64-7.11-2.5-4.1h-9.61l12-51.7h8.08l5.82-7.17-2.84-4.29L137.23,4.27l-6,7.4-2.75,12h8.82l-9.85,43.39h-3.88l-5.93,7.56Z"/><path class="cls-1" d="M214.48,28.83a14.9,14.9,0,0,0-8.24-2.15,20.75,20.75,0,0,0-6.69,1.09,25.09,25.09,0,0,0-6.11,3,27.57,27.57,0,0,0-5.22,4.64,30.75,30.75,0,0,0-4.06,5.88,31.18,31.18,0,0,0-2.63,6.77,28.48,28.48,0,0,0-.94,7.32,21.25,21.25,0,0,0,1.06,6.92,15.47,15.47,0,0,0,3.07,5.38,13.83,13.83,0,0,0,4.82,3.5,15.42,15.42,0,0,0,6.31,1.24,17.29,17.29,0,0,0,5.22-.76,19,19,0,0,0,4.54-2.11,20.22,20.22,0,0,0,3.82-3.14,30.32,30.32,0,0,0,3.15-3.88l16.07,8a40.46,40.46,0,0,1-14.53,14,40.8,40.8,0,0,1-20.25,4.89,33.46,33.46,0,0,1-12.7-2.35A29.34,29.34,0,0,1,164.54,70.3a35.6,35.6,0,0,1-2.35-13.2A47.7,47.7,0,0,1,169.05,32a46.2,46.2,0,0,1,7.61-9.43A47.18,47.18,0,0,1,197,11.17a43.57,43.57,0,0,1,11.43-1.52,35.67,35.67,0,0,1,8.52,1,29.39,29.39,0,0,1,7.15,2.74,22.7,22.7,0,0,1,5.19,3.72,36.11,36.11,0,0,1,3.12,3.48H242l3.4,5.72-6.59,8.17H219.12A11.52,11.52,0,0,0,214.48,28.83Z"/><path d="M193.87,90.83a34.88,34.88,0,0,1-13.2-2.45A30.68,30.68,0,0,1,163.3,70.8a37,37,0,0,1-2.45-13.7,50.29,50.29,0,0,1,1.87-13.89,49.1,49.1,0,0,1,5.19-11.91,47.57,47.57,0,0,1,7.83-9.7,48.62,48.62,0,0,1,20.9-11.73,45.33,45.33,0,0,1,11.78-1.56,36.81,36.81,0,0,1,8.84,1,31.46,31.46,0,0,1,7.47,2.86,23.86,23.86,0,0,1,5.5,4c1.12,1.12,2.06,2.15,2.82,3.08h9.74l4.27,7.17-7.58,9.4H218.2l-.33-.86a10.1,10.1,0,0,0-4.12-5h0A13.56,13.56,0,0,0,206.24,28,19.51,19.51,0,0,0,200,29a23.37,23.37,0,0,0-5.79,2.88,26.87,26.87,0,0,0-5,4.41,29.72,29.72,0,0,0-6.4,12.11,27.66,27.66,0,0,0-.89,7,20,20,0,0,0,1,6.49,14.3,14.3,0,0,0,2.8,4.92A12.51,12.51,0,0,0,190.08,70a14.14,14.14,0,0,0,5.77,1.13,16.32,16.32,0,0,0,4.82-.7,18,18,0,0,0,4.22-2,20.24,20.24,0,0,0,3.58-2.94,29.85,29.85,0,0,0,3-3.71l.66-1,18.44,9.2-.79,1.25a42.05,42.05,0,0,1-15,14.47A42.3,42.3,0,0,1,193.87,90.83ZM208.42,11a42.54,42.54,0,0,0-11.08,1.48,45.9,45.9,0,0,0-19.76,11.08,44.72,44.72,0,0,0-7.38,9.16A45.65,45.65,0,0,0,165.3,44a47.2,47.2,0,0,0-1.78,13.14,34.44,34.44,0,0,0,2.27,12.71,27.91,27.91,0,0,0,15.88,16.08,32.3,32.3,0,0,0,12.2,2.26,39.57,39.57,0,0,0,19.6-4.72A39,39,0,0,0,226.7,71.11L213,64.28a32.41,32.41,0,0,1-2.61,3.1,22.15,22.15,0,0,1-4.07,3.34A20.13,20.13,0,0,1,201.47,73a19,19,0,0,1-5.62.82A16.82,16.82,0,0,1,189,72.44a15.18,15.18,0,0,1-5.28-3.83,17,17,0,0,1-3.34-5.83,22.91,22.91,0,0,1-1.13-7.36,30.24,30.24,0,0,1,1-7.66A33,33,0,0,1,183,40.7a32.45,32.45,0,0,1,4.23-6.13,28.84,28.84,0,0,1,5.47-4.86,26.2,26.2,0,0,1,6.44-3.21,22.32,22.32,0,0,1,7.12-1.16,16.27,16.27,0,0,1,9,2.37h0A13,13,0,0,1,220,33.1h18.2l5.6-7-2.53-4.27h-9.53l-.4-.52a34.8,34.8,0,0,0-3-3.34,21.5,21.5,0,0,0-4.89-3.5,28.48,28.48,0,0,0-6.82-2.61A34.58,34.58,0,0,0,208.42,11Z"/><path class="cls-1" d="M270.63,89.49a33.46,33.46,0,0,1-12.7-2.35A29.34,29.34,0,0,1,241.3,70.3a35.61,35.61,0,0,1-2.36-13.2,48.26,48.26,0,0,1,1.83-13.51,47,47,0,0,1,5-11.59,46.16,46.16,0,0,1,7.6-9.43,47.85,47.85,0,0,1,9.51-7,46.67,46.67,0,0,1,10.77-4.38,43.59,43.59,0,0,1,11.44-1.52A34.31,34.31,0,0,1,298.18,12a28.9,28.9,0,0,1,10,6.66A29.86,29.86,0,0,1,314.56,29a37.17,37.17,0,0,1,2.25,13.18,50.38,50.38,0,0,1-1.7,13.28,46.94,46.94,0,0,1-4.79,11.51,45.24,45.24,0,0,1-16.75,16.56,46.28,46.28,0,0,1-22.94,6Zm1.92-17a20.58,20.58,0,0,0,6.64-1.09,24.89,24.89,0,0,0,6.09-3,27.94,27.94,0,0,0,5.22-4.61,30,30,0,0,0,4.08-5.88,31.93,31.93,0,0,0,2.66-6.8,28.3,28.3,0,0,0,1-7.35,21.9,21.9,0,0,0-1-6.92,15.58,15.58,0,0,0-3-5.37,13.56,13.56,0,0,0-4.82-3.5A15.72,15.72,0,0,0,283,26.68a21.32,21.32,0,0,0-9.84,2.38A27.15,27.15,0,0,0,265,35.45a32.06,32.06,0,0,0-5.58,9.18,28.54,28.54,0,0,0-2.08,10.79,21.24,21.24,0,0,0,1.07,6.92,15.61,15.61,0,0,0,3.06,5.38,13.92,13.92,0,0,0,4.82,3.5A15.45,15.45,0,0,0,272.55,72.46Z"/><path d="M270.63,90.83a35,35,0,0,1-13.21-2.45A30.76,30.76,0,0,1,240.05,70.8a37.23,37.23,0,0,1-2.45-13.7,49.92,49.92,0,0,1,1.88-13.89,48.89,48.89,0,0,1,5.19-11.91,47.59,47.59,0,0,1,7.82-9.7,49.31,49.31,0,0,1,9.78-7.22,48.74,48.74,0,0,1,11.08-4.51,45.27,45.27,0,0,1,11.78-1.56,35.73,35.73,0,0,1,13.55,2.48,30.23,30.23,0,0,1,10.45,7,31.18,31.18,0,0,1,6.68,10.73,38.69,38.69,0,0,1,2.34,13.65,51.91,51.91,0,0,1-1.75,13.64,48.37,48.37,0,0,1-4.92,11.83,46.67,46.67,0,0,1-17.25,17,47.71,47.71,0,0,1-23.6,6.18ZM285.13,11A42.68,42.68,0,0,0,274,12.46a46,46,0,0,0-10.47,4.26,46.6,46.6,0,0,0-9.24,6.82A45.06,45.06,0,0,0,247,32.7,46.42,46.42,0,0,0,242.05,44a47.58,47.58,0,0,0-1.77,13.14,34.44,34.44,0,0,0,2.26,12.71,28,28,0,0,0,15.89,16.08,32.23,32.23,0,0,0,12.2,2.26,45.08,45.08,0,0,0,22.28-5.83A43.83,43.83,0,0,0,302,75.43a44.39,44.39,0,0,0,7.14-9.18,46,46,0,0,0,4.65-11.18,49,49,0,0,0,1.65-12.93,36,36,0,0,0-2.17-12.71,28.52,28.52,0,0,0-6.1-9.81,27.52,27.52,0,0,0-9.53-6.35A33,33,0,0,0,285.13,11ZM272.55,73.8a16.85,16.85,0,0,1-6.85-1.36,15.18,15.18,0,0,1-5.28-3.83,17.15,17.15,0,0,1-3.33-5.83A22.86,22.86,0,0,1,256,55.42a30.2,30.2,0,0,1,2.18-11.29,33.3,33.3,0,0,1,5.81-9.56,28.74,28.74,0,0,1,8.56-6.7A22.76,22.76,0,0,1,283,25.34a17.16,17.16,0,0,1,6.92,1.36,14.94,14.94,0,0,1,5.29,3.84,16.89,16.89,0,0,1,3.28,5.83,23.4,23.4,0,0,1,1.1,7.34,29.74,29.74,0,0,1-1,7.7,33.74,33.74,0,0,1-2.78,7.08,31.89,31.89,0,0,1-4.26,6.14A29.29,29.29,0,0,1,286,69.46a26.08,26.08,0,0,1-6.41,3.18A22.15,22.15,0,0,1,272.55,73.8ZM283,28a20.17,20.17,0,0,0-9.23,2.23A26.09,26.09,0,0,0,266,36.33a30.73,30.73,0,0,0-5.35,8.8,27.54,27.54,0,0,0-2,10.29,20,20,0,0,0,1,6.49,14.14,14.14,0,0,0,2.8,4.92A12.48,12.48,0,0,0,266.78,70a14.21,14.21,0,0,0,5.77,1.13,19.44,19.44,0,0,0,6.22-1,23.64,23.64,0,0,0,5.76-2.86,26.62,26.62,0,0,0,5-4.39,29.35,29.35,0,0,0,3.9-5.62A30.7,30.7,0,0,0,296,50.72a27.08,27.08,0,0,0,.92-7,20.66,20.66,0,0,0-1-6.49,14.23,14.23,0,0,0-2.76-4.92,12.27,12.27,0,0,0-4.34-3.15A14.57,14.57,0,0,0,283,28Z"/><path class="cls-1" d="M447.76,74l-5.78-63-15.2-8.34-6.9,8.34L385,74h-3.62l3.26-14.34H367.46L365,69.87a6.21,6.21,0,0,1-1.8,3A4.43,4.43,0,0,1,360.06,74H345.51l11.4-49h7.76l6.74-8.43-3.55-5.51-27.6-8.34-6.67,8.34L330.4,25h8.72l-9.24,40.71h-3.46L320,74l-3.25,13.89h89.53l6.65-8.35L409.49,74h-6.44l5.63-10.59,24.33.2v2.08L426.42,74l-3.19,13.89h31l6.45-7.66L457.5,74ZM416.48,48.78l10.8-20.37,1.52,20.37Z"/><path d="M454.87,89.26H421.54l3.64-15.83,6.49-8.18V65l-22.19-.19-4.2,7.91h5l4.35,7-7.64,9.6H315.07l3.7-15.82,7-9.06h3.05l8.63-38h-8.73l3.65-15.88,7.42-9.28,28.94,8.74,4.34,6.73-7.75,9.69H358L347.19,72.69h12.87a3,3,0,0,0,2.2-.84,4.79,4.79,0,0,0,1.42-2.35l2.72-11.15h19.87L383,72.69h1.15l34.61-62.38L426.46,1l16.79,9.2L449,72.69h9.32l4,7.75Zm-30-2.68h28.72l5.47-6.5-2.42-4.71H446.54L440.71,11.9l-13.6-7.46L421,11.83,385.74,75.37h-6.09L382.92,61H368.51l-2.24,9.17a7.64,7.64,0,0,1-2.2,3.64,5.71,5.71,0,0,1-4,1.54H343.82l12-51.7H364l5.74-7.18L367,12.21,340.74,4.28l-5.91,7.38-2.75,12h8.71L331,67.06h-3.87l-5.83,7.56-2.8,12h87.2l5.65-7.11-2.56-4.1h-7.92l7.06-13.28,26.47.23v3.87l-6.7,8.43Zm5.33-36.46h-16l14-26.44Zm-11.53-2.68h8.65l-1.07-14.3Z"/><path class="cls-1" d="M459.47,61l6.92-8.31L477.93,61c-.92,3.42-1.24,5.83-1,7.25a7.16,7.16,0,0,0,1.7,3.55,8.38,8.38,0,0,0,3.5,2.2,18,18,0,0,0,10.44,0,11.92,11.92,0,0,0,3.86-2.1,9,9,0,0,0,2.43-3.2,9.6,9.6,0,0,0,.84-4,5.68,5.68,0,0,0-.71-2.89,7.15,7.15,0,0,0-1.9-2.1,13.31,13.31,0,0,0-2.77-1.55c-1.05-.44-2.16-.84-3.34-1.21l-8.72-3A20.42,20.42,0,0,1,476.74,51a19,19,0,0,1-4.31-4.23,19.71,19.71,0,0,1-2.82-5.5,21,21,0,0,1-1-6.57,24.26,24.26,0,0,1,2.33-10.92A21.61,21.61,0,0,1,477.44,16a29.4,29.4,0,0,1,10-4.69,48.61,48.61,0,0,1,12.75-1.57,33.68,33.68,0,0,1,9.13,1.16A25.53,25.53,0,0,1,516.38,14a15.09,15.09,0,0,1,4.51,4.36,12.16,12.16,0,0,1,1.9,4.84h5.83l3.88,4.67-6.92,8.31H507.23q1.06-4.71.61-6.54a6.67,6.67,0,0,0-1.78-3.14,8.51,8.51,0,0,0-3.32-2,13.77,13.77,0,0,0-4.43-.68,22.41,22.41,0,0,0-4.72.48,12.17,12.17,0,0,0-3.9,1.52A8.05,8.05,0,0,0,487,28.5a7.29,7.29,0,0,0-1,3.86,5.72,5.72,0,0,0,.83,3.22,7,7,0,0,0,2.69,2.18,59.23,59.23,0,0,0,5.5,2.3l10.5,3.86Q512,46.25,515,51a21.11,21.11,0,0,1,3,11.51,24.86,24.86,0,0,1-2.46,11.23,24.41,24.41,0,0,1-6.82,8.39,30.9,30.9,0,0,1-10.42,5.27,45.48,45.48,0,0,1-13.2,1.83,33.58,33.58,0,0,1-9.71-1.32A22,22,0,0,1,468,84.14,14.38,14.38,0,0,1,463.68,79a17.79,17.79,0,0,1-1.57-5.07h-5.68Z"/><path d="M485.13,90.53A34.89,34.89,0,0,1,475,89.15a23.29,23.29,0,0,1-7.87-4,15.71,15.71,0,0,1-4.7-5.63A20.87,20.87,0,0,1,461,75.27h-6.24l3.5-14.93,7.93-9.51,13.29,9.57-.24.9c-1.07,4-1.1,5.82-.94,6.65a5.74,5.74,0,0,0,1.37,2.9,7.07,7.07,0,0,0,3,1.84,16.7,16.7,0,0,0,9.57,0,10.32,10.32,0,0,0,3.41-1.86,7.62,7.62,0,0,0,2.08-2.72,8.3,8.3,0,0,0,.72-3.48,4.33,4.33,0,0,0-.53-2.21,5.71,5.71,0,0,0-1.55-1.71,11.44,11.44,0,0,0-2.48-1.38c-1-.42-2.09-.82-3.23-1.18l-8.76-3.05a22.17,22.17,0,0,1-5.88-3,20.47,20.47,0,0,1-7.62-10.4,22.15,22.15,0,0,1-1.08-7,25.67,25.67,0,0,1,2.47-11.52,23.12,23.12,0,0,1,6.91-8.29A30.82,30.82,0,0,1,487.08,10a50.06,50.06,0,0,1,13.1-1.62,34.69,34.69,0,0,1,9.49,1.22,27,27,0,0,1,7.45,3.28,16.55,16.55,0,0,1,4.9,4.76,14,14,0,0,1,1.87,4.22h5.36l5,6-8,9.64H505.55l.37-1.63c.87-3.84.76-5.36.62-5.92a5.36,5.36,0,0,0-1.42-2.53,7.39,7.39,0,0,0-2.81-1.68,12.53,12.53,0,0,0-4-.61,20.92,20.92,0,0,0-4.43.45A11.14,11.14,0,0,0,490.39,27a6.64,6.64,0,0,0-2.22,2.22,6,6,0,0,0-.79,3.16,4.42,4.42,0,0,0,.6,2.47,5.69,5.69,0,0,0,2.19,1.73,55.78,55.78,0,0,0,5.36,2.25L506,42.66c4.58,1.65,8,4.2,10.15,7.59a22.46,22.46,0,0,1,3.2,12.22,26.4,26.4,0,0,1-2.6,11.83,26,26,0,0,1-7.19,8.84,32.51,32.51,0,0,1-10.86,5.51A47.14,47.14,0,0,1,485.13,90.53Zm-27-17.94h5.17l.15,1.17a16.17,16.17,0,0,0,1.46,4.68,13.17,13.17,0,0,0,3.92,4.65,20.79,20.79,0,0,0,7,3.5,32.44,32.44,0,0,0,9.33,1.26A44.29,44.29,0,0,0,498,86.08a29.9,29.9,0,0,0,10-5,23.19,23.19,0,0,0,6.45-7.94,23.64,23.64,0,0,0,2.32-10.63,19.89,19.89,0,0,0-2.78-10.79,16.7,16.7,0,0,0-8.81-6.5l-10.5-3.86A58.3,58.3,0,0,1,489,39a8.24,8.24,0,0,1-3.2-2.62,7.05,7.05,0,0,1-1.06-4,8.66,8.66,0,0,1,1.18-4.55,9.37,9.37,0,0,1,3.1-3.1,13.7,13.7,0,0,1,4.33-1.7,23.67,23.67,0,0,1,5-.51,15.12,15.12,0,0,1,4.87.76A9.85,9.85,0,0,1,507,25.58a8.07,8.07,0,0,1,2.13,3.77,13.86,13.86,0,0,1-.26,5.52H525l5.8-7L528,24.57h-6.36l-.16-1.14a11,11,0,0,0-1.7-4.32,13.92,13.92,0,0,0-4.13-4,24.3,24.3,0,0,0-6.7-3,32.15,32.15,0,0,0-8.76-1.11,47.7,47.7,0,0,0-12.4,1.52,28.24,28.24,0,0,0-9.54,4.47,20.37,20.37,0,0,0-6.11,7.33,23,23,0,0,0-2.19,10.33,19.7,19.7,0,0,0,.94,6.14A18.12,18.12,0,0,0,473.5,46a17.91,17.91,0,0,0,4,3.94,19.21,19.21,0,0,0,5.19,2.63l8.74,3.05c1.17.37,2.34.79,3.42,1.25a14.47,14.47,0,0,1,3,1.7,8.3,8.3,0,0,1,2.26,2.51,6.87,6.87,0,0,1,.9,3.56,11.08,11.08,0,0,1-1,4.58,10.31,10.31,0,0,1-2.79,3.67A13.14,13.14,0,0,1,493,75.25a17.3,17.3,0,0,1-5.52.83,17.5,17.5,0,0,1-5.8-.86,9.87,9.87,0,0,1-4-2.57,8.4,8.4,0,0,1-2-4.2c-.29-1.5,0-3.78.75-7l-9.78-7-5.92,7.11Z"/><path class="cls-1" d="M19.48,111.28,26.4,103l23.91,8.3a37,37,0,0,1,12.77,2.13,28.83,28.83,0,0,1,10.07,6.16,27.86,27.86,0,0,1,6.59,9.91,35.84,35.84,0,0,1,2.35,13.39A49.29,49.29,0,0,1,80.62,155a43.22,43.22,0,0,1-4.31,10.82,41.41,41.41,0,0,1-7,9.13,42.45,42.45,0,0,1-9.53,7,48.8,48.8,0,0,1-11.94,4.53,59.59,59.59,0,0,1-14.17,1.6h-32l3.24-13.89,6.68-8.31h2.83l9.71-40.71H16.24Zm22.46,14-11.41,49H36a23.65,23.65,0,0,0,7.17-1.09,27.43,27.43,0,0,0,6.54-3,29.11,29.11,0,0,0,5.63-4.69,30.77,30.77,0,0,0,7.27-13.18,30.42,30.42,0,0,0,1-7.91,26,26,0,0,0-1.35-9,15.94,15.94,0,0,0-3.59-5.91,13.36,13.36,0,0,0-5.2-3.25,19.4,19.4,0,0,0-6.14-1Z"/><path d="M33.68,189.48H0l3.7-15.83,7.27-9h2.41l9.07-38h-7.9l3.7-15.9L26,101.41,50.53,110a38.15,38.15,0,0,1,13,2.21,30.13,30.13,0,0,1,10.53,6.44A29.25,29.25,0,0,1,81,129a37.17,37.17,0,0,1,2.45,13.88,51,51,0,0,1-1.51,12.47,44.94,44.94,0,0,1-4.44,11.15,43.3,43.3,0,0,1-7.22,9.42,44,44,0,0,1-9.83,7.27,49.82,49.82,0,0,1-12.27,4.66A61.15,61.15,0,0,1,33.68,189.48ZM3.38,186.8h30.3a58.57,58.57,0,0,0,13.85-1.56,47.18,47.18,0,0,0,11.61-4.41A41.41,41.41,0,0,0,68.38,174a40.67,40.67,0,0,0,6.77-8.83,42.89,42.89,0,0,0,4.18-10.5,48.54,48.54,0,0,0,1.42-11.81A34.62,34.62,0,0,0,78.49,130a26.46,26.46,0,0,0-6.27-9.44,27.47,27.47,0,0,0-9.6-5.87,35.76,35.76,0,0,0-12.31-2h-.23l-23.24-8.07-6.13,7.35-2.79,12h7.92L15.5,167.28H12.26l-6.09,7.57ZM36,175.59H28.85l12-51.7h6.43A20.37,20.37,0,0,1,53.88,125a14.63,14.63,0,0,1,5.71,3.56,17.47,17.47,0,0,1,3.91,6.39,27.54,27.54,0,0,1,1.43,9.44,32.12,32.12,0,0,1-1.06,8.25,32.46,32.46,0,0,1-3,7.43,32.07,32.07,0,0,1-4.6,6.32,30.8,30.8,0,0,1-5.89,4.91,28.76,28.76,0,0,1-6.86,3.19A25.35,25.35,0,0,1,36,175.59Zm-3.74-2.68H36a22.63,22.63,0,0,0,6.77-1A26.28,26.28,0,0,0,49,169a27.79,27.79,0,0,0,5.37-4.48,28.84,28.84,0,0,0,4.22-5.79,30.22,30.22,0,0,0,2.74-6.82,29.45,29.45,0,0,0,1-7.56A24.88,24.88,0,0,0,61,135.83a14.77,14.77,0,0,0-3.29-5.42A12,12,0,0,0,53,127.48a18.11,18.11,0,0,0-5.71-.91H43Z"/><path class="cls-1" d="M98.87,111.28,106,103l58.65,8.28.89,17.91-6.93,8.3H140.85l2.79-12.26H122.3l-3.86,16.52h17.09l3.52,6.41-6.92,8.3H115.05l-4.16,17.79H131l3.1-13.64,7-7.91,10.81,7.91.59,19.22-6.93,8.31H82l3.25-13.89,6.92-8.31,2.89-.15,8.8-40.56H95.68Z"/><path d="M146.14,189.48H80.35l3.7-15.84,7.5-9,2.46-.13,8.23-37.94H94l3.64-15.91,7.8-9.08,60.47,8.53,1,19.53-7.66,9.19H139.17L142,126.57h-18.6l-3.23,13.84h16.19l4.35,7.89-7.91,9.49H116.11l-3.53,15.12h17.31L132.83,160l8-9.08,12.33,9,.62,20.38ZM83.73,186.8h61.16l6.19-7.43-.55-18.06-9.3-6.81-5.94,6.74L132,175.59H109.2L114,155.12H131.5l5.94-7.12-2.7-4.91h-18l4.48-19.2h24.09l-2.79,12.27H158l6.18-7.43-.81-16.27-56.82-8-6.42,7.48-2.74,12h8.2L96.2,167.08l-3.34.17-6.34,7.61Z"/><path class="cls-1" d="M226.88,111.28l6.92-8.3,27.35,8.3,3.73,5.43-7,8.52h-7.86l-11.35,49h8.87l3.67,5.58-6.92,8.31H210.05l3.25-13.89,6.92-8.31h2.66l2.63-11.36H191.75l-4.56,19.67h8.67l3.67,5.58-6.92,8.31H158.34l3.25-13.89,6.92-8.31,2.9-.19,9.39-40.52h-8.72l3.19-14,6.93-8.3,28.27,0,2.8,13.92-6.92,8.31h-7.76l-3.65,15.66h33.72l3.65-15.66h-8.62Z"/><path d="M245,189.48H208.36l3.7-15.84,7.53-9h2.22l2-8.69h-31l-3.94,17h7.71l4.62,7-8,9.55H156.65l3.7-15.84,7.5-9,2.48-.17,8.79-37.91H170.4l3.64-15.9,7.53-9,30,0,3.14,15.61L207,126.57h-7.32l-3,13h31l3-13H222l3.64-15.9,7.69-9.23,28.65,8.7,4.56,6.64-8,9.79h-7.42l-10.74,46.34h7.91l4.62,7Zm-33.21-2.68h32l5.88-7.06-2.73-4.15H237l12-51.7h8.29l5.93-7.25-2.89-4.21-26.06-7.91-6.14,7.38-2.75,12H234l-4.28,18.34H193.26l4.27-18.34h8.19l6.11-7.33-2.45-12.22-26.56,0-6.31,7.58-2.75,12h8.72l-10,43.13-3.32.22-6.35,7.62L160,186.8h32l5.88-7.06-2.74-4.15H185.5l5.19-22.35H227.2l-3.26,14h-3.1l-6.31,7.58Z"/><path class="cls-1" d="M273.83,111.28h65.75l-6,26.21H315.81l2.78-12.26H297.25l-3.85,16.52h17.08l-3.39,14.71H290l-4.16,17.79h20.08L309,160.61h17.8l-6.34,27.53H257l3.24-13.89h7.86l11.36-49h-8.83Z"/><path d="M321.54,189.48H255.31l3.87-16.57H267l10.73-46.34H269L272.76,110h68.51l-6.65,28.88H314.13l2.79-12.26H298.31l-3.23,13.84h17.09l-4,17.38H291.06l-3.53,15.12h17.32l3.09-13.64h20.55Zm-62.85-2.68H319.4L325.12,162h-15L307,175.59H284.16l4.78-20.47H306l2.78-12H291.71l4.48-19.2h24.08l-2.79,12.27h15l5.42-23.54h-63l-2.58,11.27h8.82l-12,51.7H261.3Z"/><path class="cls-1" d="M404,127.2l-49.38,47.05h21.8l3-13.08,7.12-8.08L397,161.17l.74,18.42-7,8.55H331.22l3.6-15.87,48.46-47H362.75l3.93,5-6.92,8.31H342.32l6.34-27.23,7-8.3h53.2Z"/><path d="M391.42,189.48H329.54l4.06-17.89.28-.28L380,126.57H365.52l2.89,3.65-8,9.63H340.63l6.8-29.18,7.64-9h55.46l-5.33,26.24-.31.29-46.95,44.74h17.38l2.83-12.37,8.18-9.27,12,9.22.79,19.55Zm-58.53-2.68h57.26l6.26-7.66-.7-17.29-9-6.93-6.07,6.88-3.15,13.79H351.24l51.5-49.07,4.51-22.2H356.31l-6.42,7.58L344,137.17h15.12l5.83-7-5-6.29h26.59L336,173Z"/><path class="cls-1" d="M443.11,174.25l6.51-8.57.05-2.29-24.31.26-5.63,10.6h6.44l3.73,5.58L423,188.14H392l7.84-9.83,1.85-4.06,34.93-63,6.92-8.3,15.18,8.3,5.78,63h9.73l3.68,5.58-6.92,8.31h-31ZM433.17,149h12.32L444,128.62Z"/><path d="M471.57,189.48H438.23l3.64-15.81,6.42-8.45v-.48l-22.13.24L422,172.91h4.93l4.68,7-8,9.56H389.17l9.47-11.87,1.82-4,35-63.08,7.71-9.24,16.77,9.17,5.73,62.46h9.24l4.62,7Zm-30-2.68h28.72l5.89-7.06-2.74-4.15H463.23l-5.83-63.47-13.59-7.44L437.68,112l-34.85,62.81-2,4.3-6.1,7.65h27.62l5.88-7.05-2.77-4.16h-7.95l7-13.27L451,162l-.08,4.11-6.6,8.69Zm5.34-36.46H431l14-26.45Zm-11.54-2.68h8.66L443,133.35Z"/><path class="cls-2" d="M136.91,2.76h34.28L168,16.7h-7.65l-11.41,49h8.67l-3.25,13.9H120.08l3.25-13.9h7.86l11.35-49h-8.82Z"/><path d="M155.42,81h-37l3.86-16.56h7.86L140.86,18H132l3.81-16.62h37L169.06,18H161.4L150.62,64.39h8.67Zm-33.65-2.67h31.52l2.62-11.22h-8.67l12-51.7h7.65L169.5,4.1H138L135.4,15.36h8.83l-12,51.7h-7.86Z"/><path class="cls-2" d="M95.29,2.76h31l-3.2,13.94h-6.59L102,79.62H84.59L65,32.21,57.27,65.72h6.54l-3.19,13.9H29.54l3.24-13.9h6.85l11.3-49H42.62L45.86,2.76H72L91,50.21,98.79,16.7H92.05Z"/><path d="M103.1,81H83.7L65.39,36.6,59,64.39h6.54L61.68,81H27.85l3.87-16.56h6.84L49.25,18H40.93L44.8,1.42H72.93L90.64,45.76,97.1,18H90.36L94.23,1.42H128L124.19,18H117.6ZM85.49,78.28H101l14.5-62.92h6.59L124.64,4.1H96.36L93.73,15.36h6.75l-9.16,39.3L71.11,4.1H46.93L44.3,15.36h8.31L40.69,67.06H33.84L31.23,78.28H59.55l2.58-11.22H55.58l9.09-39.23Z"/><path class="cls-2" d="M221.4,20.53a14.8,14.8,0,0,0-8.24-2.16,21,21,0,0,0-6.69,1.09,24.77,24.77,0,0,0-6.11,3.05,27.51,27.51,0,0,0-5.22,4.63A31.87,31.87,0,0,0,191.08,33a31.18,31.18,0,0,0-2.63,6.77,28.61,28.61,0,0,0-.94,7.33A21.33,21.33,0,0,0,188.57,54a15.58,15.58,0,0,0,3.07,5.37,13.8,13.8,0,0,0,4.82,3.5,15.42,15.42,0,0,0,6.31,1.24,17.29,17.29,0,0,0,5.22-.76,18.77,18.77,0,0,0,4.54-2.1,21,21,0,0,0,3.83-3.14,31,31,0,0,0,3.14-3.88l16.07,8a40.49,40.49,0,0,1-14.52,14,40.73,40.73,0,0,1-20.26,4.9,33.5,33.5,0,0,1-12.7-2.36A29.36,29.36,0,0,1,171.46,62a35.62,35.62,0,0,1-2.35-13.21,48.69,48.69,0,0,1,1.82-13.51,47.18,47.18,0,0,1,5-11.58,45.56,45.56,0,0,1,7.6-9.43A47.34,47.34,0,0,1,203.91,2.86a44,44,0,0,1,11.43-1.52,35.61,35.61,0,0,1,8.52,1A29.81,29.81,0,0,1,231,5a22.71,22.71,0,0,1,5.19,3.73,37.38,37.38,0,0,1,3.12,3.47H249l-3.19,13.89H226A11.5,11.5,0,0,0,221.4,20.53Z"/><path d="M200.79,82.53a34.89,34.89,0,0,1-13.2-2.46,30.61,30.61,0,0,1-17.37-17.58,37,37,0,0,1-2.45-13.7,49.84,49.84,0,0,1,1.88-13.88A48.91,48.91,0,0,1,174.83,23a47.63,47.63,0,0,1,7.83-9.71,48.74,48.74,0,0,1,20.9-11.72A45.34,45.34,0,0,1,215.34,0a37.32,37.32,0,0,1,8.84,1,30.9,30.9,0,0,1,7.47,2.87,24.15,24.15,0,0,1,5.5,4A40,40,0,0,1,240,10.9h10.67l-3.81,16.57H225.12l-.33-.86a10,10,0,0,0-4.12-5,13.56,13.56,0,0,0-7.51-1.94,19.78,19.78,0,0,0-6.26,1,24,24,0,0,0-5.78,2.88,26.26,26.26,0,0,0-5,4.42,29.12,29.12,0,0,0-3.88,5.62,30.28,30.28,0,0,0-2.53,6.48,27.68,27.68,0,0,0-.89,7,20.14,20.14,0,0,0,1,6.49,14.26,14.26,0,0,0,2.8,4.91A12.54,12.54,0,0,0,197,61.69a14.31,14.31,0,0,0,5.77,1.12,15.91,15.91,0,0,0,4.82-.7,17.24,17.24,0,0,0,4.22-2,19.4,19.4,0,0,0,3.58-2.94,29.13,29.13,0,0,0,3-3.71l.66-1,18.45,9.19L236.7,63a41.89,41.89,0,0,1-15,14.47A42.31,42.31,0,0,1,200.79,82.53ZM215.34,2.68a42.53,42.53,0,0,0-11.08,1.47,46.59,46.59,0,0,0-10.5,4.27,46.05,46.05,0,0,0-9.26,6.82,44.93,44.93,0,0,0-7.38,9.15,46.59,46.59,0,0,0-4.9,11.26,47.2,47.2,0,0,0-1.77,13.14,34.44,34.44,0,0,0,2.26,12.71A27.94,27.94,0,0,0,188.6,77.59a32.22,32.22,0,0,0,12.19,2.26,39.67,39.67,0,0,0,19.6-4.72A39,39,0,0,0,233.62,62.8L219.93,56a32.28,32.28,0,0,1-2.61,3.09,21.87,21.87,0,0,1-4.07,3.35,20.49,20.49,0,0,1-4.86,2.25,18.63,18.63,0,0,1-5.62.82,16.82,16.82,0,0,1-6.85-1.35,15.33,15.33,0,0,1-5.28-3.84,16.83,16.83,0,0,1-3.33-5.83,22.58,22.58,0,0,1-1.14-7.35,30.26,30.26,0,0,1,1-7.67,32.54,32.54,0,0,1,7-13.19,28.94,28.94,0,0,1,5.48-4.86A26.49,26.49,0,0,1,206,18.19,22.36,22.36,0,0,1,213.16,17a16.16,16.16,0,0,1,9,2.38h0a12.94,12.94,0,0,1,4.79,5.38h17.77l2.58-11.21h-8.61l-.4-.53a37.24,37.24,0,0,0-3-3.34,22,22,0,0,0-4.89-3.5,28.56,28.56,0,0,0-6.83-2.61A34.6,34.6,0,0,0,215.34,2.68Z"/><path class="cls-2" d="M277.55,81.19a33.46,33.46,0,0,1-12.7-2.36A29.36,29.36,0,0,1,248.22,62a35.62,35.62,0,0,1-2.36-13.21,48.31,48.31,0,0,1,1.83-13.51,46.79,46.79,0,0,1,5-11.58,45.6,45.6,0,0,1,7.61-9.43,47.5,47.5,0,0,1,9.5-7,47,47,0,0,1,10.78-4.39,43.88,43.88,0,0,1,11.43-1.52A34.28,34.28,0,0,1,305.1,3.72a28.69,28.69,0,0,1,10,6.67,29.91,29.91,0,0,1,6.39,10.26,37.23,37.23,0,0,1,2.25,13.19A50.07,50.07,0,0,1,322,47.12a47.1,47.1,0,0,1-4.79,11.51,45.31,45.31,0,0,1-16.75,16.55,46.43,46.43,0,0,1-22.94,6Zm1.92-17a20.69,20.69,0,0,0,6.65-1.09,24.8,24.8,0,0,0,6.08-3,28.36,28.36,0,0,0,5.22-4.62,30,30,0,0,0,4.08-5.88,32.06,32.06,0,0,0,2.66-6.79,28,28,0,0,0,1-7.35,21.85,21.85,0,0,0-1-6.92,15.63,15.63,0,0,0-3-5.38,13.46,13.46,0,0,0-4.81-3.49,15.8,15.8,0,0,0-6.39-1.25A21.33,21.33,0,0,0,280,20.76a27.11,27.11,0,0,0-8.16,6.38,32.06,32.06,0,0,0-5.58,9.18,28.82,28.82,0,0,0-2.08,10.8A21.33,21.33,0,0,0,265.28,54a15.43,15.43,0,0,0,3.07,5.37,13.76,13.76,0,0,0,4.81,3.5A15.45,15.45,0,0,0,279.47,64.15Z"/><path d="M277.55,82.53a35,35,0,0,1-13.21-2.46A30.68,30.68,0,0,1,247,62.49a37.23,37.23,0,0,1-2.45-13.7,50.22,50.22,0,0,1,1.88-13.88A49.1,49.1,0,0,1,251.59,23a47.65,47.65,0,0,1,7.82-9.71,49.15,49.15,0,0,1,9.78-7.21,48,48,0,0,1,11.08-4.51A45.29,45.29,0,0,1,292.05,0a35.78,35.78,0,0,1,13.56,2.48,30.08,30.08,0,0,1,10.44,7,31,31,0,0,1,6.68,10.72,38.74,38.74,0,0,1,2.34,13.66,51.89,51.89,0,0,1-1.74,13.63A48.62,48.62,0,0,1,318.4,59.3a46.47,46.47,0,0,1-17.25,17,47.39,47.39,0,0,1-11.27,4.59A47.82,47.82,0,0,1,277.55,82.53Zm14.5-79.85A42.66,42.66,0,0,0,281,4.15a45.73,45.73,0,0,0-19.7,11.09,45,45,0,0,0-7.39,9.15A46.59,46.59,0,0,0,249,35.65a47.58,47.58,0,0,0-1.77,13.14,34.44,34.44,0,0,0,2.26,12.71,28,28,0,0,0,15.89,16.09,32.27,32.27,0,0,0,12.2,2.26A44.94,44.94,0,0,0,299.83,74,43.88,43.88,0,0,0,316.09,58a45.9,45.9,0,0,0,4.65-11.18,49.15,49.15,0,0,0,1.65-12.93,35.92,35.92,0,0,0-2.17-12.71,28.46,28.46,0,0,0-6.09-9.81A27.59,27.59,0,0,0,304.6,5,33.31,33.31,0,0,0,292.05,2.68ZM279.47,65.49a16.85,16.85,0,0,1-6.85-1.35,15.43,15.43,0,0,1-5.28-3.84A17.15,17.15,0,0,1,264,54.47a22.85,22.85,0,0,1-1.13-7.35,30.21,30.21,0,0,1,2.17-11.3,33.66,33.66,0,0,1,5.81-9.56,28.9,28.9,0,0,1,8.56-6.7A22.76,22.76,0,0,1,289.87,17a17.19,17.19,0,0,1,6.92,1.36,14.88,14.88,0,0,1,5.29,3.84,16.89,16.89,0,0,1,3.28,5.83,23.42,23.42,0,0,1,1.11,7.35,29.73,29.73,0,0,1-1,7.69,33.53,33.53,0,0,1-2.78,7.08,31.16,31.16,0,0,1-4.26,6.14A28.9,28.9,0,0,1,293,61.15a26.26,26.26,0,0,1-6.41,3.18A22.1,22.1,0,0,1,279.47,65.49Zm10.4-45.78A20.05,20.05,0,0,0,280.64,22,26.05,26.05,0,0,0,272.88,28a30.84,30.84,0,0,0-5.34,8.8,27.41,27.41,0,0,0-2,10.3,20.09,20.09,0,0,0,1,6.49,14.26,14.26,0,0,0,2.8,4.91,12.5,12.5,0,0,0,4.35,3.17,14.38,14.38,0,0,0,5.77,1.12,19.35,19.35,0,0,0,6.22-1,23.78,23.78,0,0,0,5.76-2.85,26.68,26.68,0,0,0,5-4.4,28.91,28.91,0,0,0,3.9-5.62,30.7,30.7,0,0,0,2.55-6.51,27,27,0,0,0,.92-7,20.68,20.68,0,0,0-1-6.5A14.18,14.18,0,0,0,300.06,24a12.29,12.29,0,0,0-4.34-3.16A14.57,14.57,0,0,0,289.87,19.71Z"/><path class="cls-2" d="M454.69,65.72l-5.78-63H426.8l-34.93,63h-3.62l3.27-14.34H374.38l-2.49,10.19a6.23,6.23,0,0,1-1.8,3A4.37,4.37,0,0,1,367,65.72H352.43l11.41-49h7.75l3.2-13.94H340.52l-3.2,13.94H346l-11.36,49h-7.75l-3.25,13.89h89.54l3.19-13.89H410l5.63-10.59h21.19l.81,10.59h-4.26l-3.19,13.89h31l3.25-13.89ZM423.41,40.48,434.2,20.1l1.52,20.38Z"/><path d="M462.23,81H428.47l3.8-16.57h3.88l-.61-7.91H416.4l-4.2,7.91h5.89L414.28,81H322l3.88-16.57h7.75L344.36,18h-8.72l3.81-16.62h37L372.66,18H364.9L354.12,64.38H367a3.07,3.07,0,0,0,2.2-.83,4.93,4.93,0,0,0,1.43-2.35L373.33,50H393.2l-3.27,14.34h1.15L426,1.42h24.12l5.78,63h10.2Zm-30.4-2.68h28.28l2.62-11.21h-9.27l-5.78-63H427.59l-34.93,63h-6.09l3.27-14.34H375.43l-2.24,9.17A7.59,7.59,0,0,1,371,65.52a5.74,5.74,0,0,1-4,1.54H350.74l12-51.7h7.75L373.11,4.1H341.58L339,15.36h8.72l-12,51.7H328l-2.62,11.21h86.78l2.58-11.21h-7l7.05-13.27H438l1,13.27h-4.63Zm5.33-36.45h-16l14-26.45Zm-11.53-2.68h8.65l-1.07-14.31Z"/><path class="cls-2" d="M466.39,52.64h18.46c-.91,3.42-1.24,5.83-1,7.25a7.1,7.1,0,0,0,1.69,3.55,8.56,8.56,0,0,0,3.5,2.21,16.11,16.11,0,0,0,5.35.78,15.89,15.89,0,0,0,5.1-.76,11.6,11.6,0,0,0,3.85-2.1,9.08,9.08,0,0,0,2.43-3.19,9.67,9.67,0,0,0,.84-4,5.65,5.65,0,0,0-.71-2.89,7.06,7.06,0,0,0-1.9-2.11,13.29,13.29,0,0,0-2.77-1.54c-1-.44-2.16-.85-3.34-1.22l-8.72-3a20.73,20.73,0,0,1-5.55-2.82,19.23,19.23,0,0,1-4.31-4.23,19.58,19.58,0,0,1-2.82-5.5,20.93,20.93,0,0,1-1-6.57,24.32,24.32,0,0,1,2.33-10.92,21.64,21.64,0,0,1,6.52-7.81,29.26,29.26,0,0,1,10-4.69A49,49,0,0,1,507.1,1.44a33.28,33.28,0,0,1,9.13,1.17,25.23,25.23,0,0,1,7.07,3.11,15.21,15.21,0,0,1,4.51,4.36,12.32,12.32,0,0,1,1.91,4.85h5.83l-3,13H514.15q1.07-4.71.61-6.54A6.7,6.7,0,0,0,513,18.22a8.53,8.53,0,0,0-3.33-2,13.5,13.5,0,0,0-4.43-.69,22.4,22.4,0,0,0-4.72.49,12.12,12.12,0,0,0-3.9,1.52A8,8,0,0,0,494,20.2a7.23,7.23,0,0,0-1,3.85,5.64,5.64,0,0,0,.84,3.22,6.78,6.78,0,0,0,2.68,2.18c1.24.63,3.07,1.39,5.5,2.31l10.5,3.85c4.32,1.56,7.48,3.9,9.48,7a21.09,21.09,0,0,1,3,11.51,24.81,24.81,0,0,1-2.46,11.22,24.45,24.45,0,0,1-6.82,8.4,31.27,31.27,0,0,1-10.42,5.27,45.83,45.83,0,0,1-13.2,1.82,33.58,33.58,0,0,1-9.71-1.32,22,22,0,0,1-7.43-3.72,14.51,14.51,0,0,1-4.31-5.15A17.6,17.6,0,0,1,469,65.62h-5.68Z"/><path d="M492.05,82.22A35.24,35.24,0,0,1,482,80.85a23.66,23.66,0,0,1-7.87-4,15.79,15.79,0,0,1-4.69-5.64A20.1,20.1,0,0,1,467.91,67h-6.25l3.67-15.65h21.26L486.14,53c-1.06,4-1.1,5.82-.94,6.65a5.86,5.86,0,0,0,1.37,2.9,7.26,7.26,0,0,0,3,1.85,14.79,14.79,0,0,0,4.9.71,14.6,14.6,0,0,0,4.67-.7,10.29,10.29,0,0,0,3.42-1.86,7.62,7.62,0,0,0,2.07-2.72,8.29,8.29,0,0,0,.72-3.47,4.37,4.37,0,0,0-.53-2.22,5.93,5.93,0,0,0-1.54-1.71A12.41,12.41,0,0,0,500.76,51c-1-.42-2.1-.82-3.23-1.17l-8.76-3.06a22.08,22.08,0,0,1-5.89-3,20.6,20.6,0,0,1-4.61-4.52,20.93,20.93,0,0,1-3-5.88,22.15,22.15,0,0,1-1.08-7,25.7,25.7,0,0,1,2.47-11.52,22.93,22.93,0,0,1,6.92-8.28A30.88,30.88,0,0,1,494,1.72,50.49,50.49,0,0,1,507.1.1a34.82,34.82,0,0,1,9.5,1.22A26.89,26.89,0,0,1,524,4.61a16.4,16.4,0,0,1,4.9,4.75,14.17,14.17,0,0,1,1.87,4.23h6.42l-3.66,15.65H512.48l.36-1.63c.87-3.83.76-5.35.62-5.92A5.28,5.28,0,0,0,512,19.17a7.15,7.15,0,0,0-2.81-1.68,12.3,12.3,0,0,0-4-.62,21,21,0,0,0-4.43.46,11,11,0,0,0-3.48,1.34,6.61,6.61,0,0,0-2.23,2.23,5.89,5.89,0,0,0-.79,3.15,4.34,4.34,0,0,0,.61,2.47,5.47,5.47,0,0,0,2.18,1.73,55.78,55.78,0,0,0,5.36,2.25l10.49,3.85c4.58,1.65,8,4.2,10.15,7.59a22.5,22.5,0,0,1,3.2,12.23A26.36,26.36,0,0,1,523.69,66a25.9,25.9,0,0,1-7.19,8.85,32.49,32.49,0,0,1-10.86,5.5A47.14,47.14,0,0,1,492.05,82.22ZM465,64.28h5.17l.15,1.17a16.08,16.08,0,0,0,1.46,4.68,13.28,13.28,0,0,0,3.92,4.66,20.87,20.87,0,0,0,7,3.49,32.4,32.4,0,0,0,9.33,1.26,44.64,44.64,0,0,0,12.82-1.76,29.82,29.82,0,0,0,10-5,23.14,23.14,0,0,0,6.45-7.93,23.64,23.64,0,0,0,2.32-10.63,20,20,0,0,0-2.78-10.8c-1.82-2.87-4.79-5-8.8-6.5L501.52,33a57.22,57.22,0,0,1-5.64-2.37,8.16,8.16,0,0,1-3.2-2.62,7,7,0,0,1-1.06-4,8.66,8.66,0,0,1,1.18-4.55,9.47,9.47,0,0,1,3.1-3.1,13.59,13.59,0,0,1,4.33-1.69,23.81,23.81,0,0,1,5-.51,15.12,15.12,0,0,1,4.87.75,9.85,9.85,0,0,1,3.83,2.32A8,8,0,0,1,516.06,21a13.91,13.91,0,0,1-.26,5.53h15.64l2.42-10.31h-5.3l-.17-1.14a11.06,11.06,0,0,0-1.7-4.31,14,14,0,0,0-4.12-4,24.37,24.37,0,0,0-6.71-2.95,32.15,32.15,0,0,0-8.76-1.11A47.76,47.76,0,0,0,494.7,4.3a28.11,28.11,0,0,0-9.53,4.48,20.27,20.27,0,0,0-6.12,7.32,23.11,23.11,0,0,0-2.19,10.33,19.52,19.52,0,0,0,.95,6.15,17.92,17.92,0,0,0,2.61,5.12,18.11,18.11,0,0,0,4,3.94,19.24,19.24,0,0,0,5.19,2.64l8.74,3c1.17.37,2.33.8,3.42,1.25a14.38,14.38,0,0,1,3,1.71,8.48,8.48,0,0,1,2.25,2.5,6.94,6.94,0,0,1,.9,3.57,11,11,0,0,1-1,4.58,10.36,10.36,0,0,1-2.79,3.66A13.14,13.14,0,0,1,500,66.94a17.3,17.3,0,0,1-5.52.83,17.5,17.5,0,0,1-5.8-.86,10,10,0,0,1-4-2.56,8.61,8.61,0,0,1-2-4.2,16.23,16.23,0,0,1,.56-6.17H467.46Z"/><path class="cls-2" d="M26.4,103H57.23A36.91,36.91,0,0,1,70,105.11a28.68,28.68,0,0,1,10.07,6.16,27.64,27.64,0,0,1,6.59,9.91A35.75,35.75,0,0,1,89,134.56a49.23,49.23,0,0,1-1.47,12.14,43.29,43.29,0,0,1-4.31,10.83,41.35,41.35,0,0,1-7,9.12,42.45,42.45,0,0,1-9.53,7,49.22,49.22,0,0,1-11.94,4.54,60.12,60.12,0,0,1-14.17,1.59h-32l3.24-13.89h7.86l11.36-49H23.16Zm22.46,13.94-11.4,49h5.42a23.65,23.65,0,0,0,7.17-1.09,27,27,0,0,0,6.54-3,28.76,28.76,0,0,0,5.63-4.69,30.15,30.15,0,0,0,4.41-6.06,31.12,31.12,0,0,0,2.87-7.12,30.79,30.79,0,0,0,1-7.91,26.25,26.25,0,0,0-1.34-9,16.25,16.25,0,0,0-3.6-5.91,13.34,13.34,0,0,0-5.2-3.24,19.06,19.06,0,0,0-6.13-1Z"/><path d="M40.6,181.17H6.92l3.87-16.56h7.86l10.73-46.35H21.47l3.87-16.62H57.23a38.34,38.34,0,0,1,13.23,2.21A30.12,30.12,0,0,1,81,110.3a29.12,29.12,0,0,1,6.91,10.38,37.17,37.17,0,0,1,2.45,13.88A50.89,50.89,0,0,1,88.84,147a45.17,45.17,0,0,1-4.44,11.16,42.91,42.91,0,0,1-7.22,9.42,44.27,44.27,0,0,1-9.83,7.27,50.63,50.63,0,0,1-12.27,4.66A61.69,61.69,0,0,1,40.6,181.17ZM10.3,178.5H40.6a59,59,0,0,0,13.85-1.56,47.58,47.58,0,0,0,11.61-4.41,41.22,41.22,0,0,0,9.24-6.83,40.36,40.36,0,0,0,6.77-8.83,43,43,0,0,0,4.18-10.49,48.62,48.62,0,0,0,1.42-11.82,34.77,34.77,0,0,0-2.25-12.88,26.53,26.53,0,0,0-6.28-9.44,27.32,27.32,0,0,0-9.6-5.87,35.76,35.76,0,0,0-12.31-2.05H27.47l-2.62,11.26h7.9l-12,51.7H12.92Zm32.58-11.22H35.77l12-51.7h6.44a20.63,20.63,0,0,1,6.56,1.06,14.47,14.47,0,0,1,5.71,3.57,17.3,17.3,0,0,1,3.91,6.39A27.48,27.48,0,0,1,71.85,136a32.16,32.16,0,0,1-8.65,22,30.38,30.38,0,0,1-5.89,4.9,28.66,28.66,0,0,1-6.85,3.19A25.14,25.14,0,0,1,42.88,167.28Zm-3.74-2.67h3.74a22.63,22.63,0,0,0,6.77-1,26.35,26.35,0,0,0,6.23-2.9,27.68,27.68,0,0,0,5.36-4.47,29.19,29.19,0,0,0,4.22-5.8,29.68,29.68,0,0,0,2.74-6.81,29.09,29.09,0,0,0,1-7.57,24.92,24.92,0,0,0-1.26-8.51,14.86,14.86,0,0,0-3.29-5.42,11.93,11.93,0,0,0-4.68-2.92,17.82,17.82,0,0,0-5.7-.92H49.93Z"/><path class="cls-2" d="M105.79,103h65.76l-6,26.21H147.77l2.79-12.27H129.22l-3.86,16.53h17.09l-3.4,14.7H122l-4.16,17.79h20.08L141,152.31h17.79l-6.33,27.52H89l3.25-13.89h7.86l11.35-49H102.6Z"/><path d="M153.5,181.17H87.28l3.87-16.56H99l10.74-46.35h-8.82l3.81-16.62h68.5l-6.65,28.89H146.09l2.79-12.27h-18.6l-3.23,13.85h17.08l-4,17.38H123l-3.53,15.12h17.32L139.91,151h20.55ZM90.65,178.5h60.72l5.72-24.85h-15L139,167.28H116.12l4.78-20.47H138l2.78-12H123.68l4.47-19.21h24.09l-2.79,12.27h15l5.42-23.53h-63l-2.58,11.26h8.83l-12,51.7H93.27Z"/><path class="cls-2" d="M233.8,103h34.28l-3.25,13.94H257l-11.35,49h8.87l-3.25,13.89H217l3.25-13.89h7.65l4.57-19.67H198.67l-4.56,19.67h8.67l-3.25,13.89H165.26l3.25-13.89h7.86l11.35-49H179L182.2,103h34.27l-3.2,13.94h-7.75l-3.65,15.67h33.71l3.65-15.67h-8.62Z"/><path d="M252.31,181.17h-37l3.87-16.56h7.65l3.94-17h-31l-4,17h8.68l-3.87,16.56h-37l3.86-16.56h7.86L186,118.26h-8.72l3.81-16.62h37l-3.81,16.62h-7.76l-3,13h31l3-13h-8.61l3.81-16.62h37l-3.86,16.62H258L247.3,164.61h8.88Zm-33.65-2.67h31.52l2.62-11.22h-8.87l12-51.7h7.86l2.62-11.26H234.87l-2.58,11.26h8.63l-4.28,18.34H200.18l4.27-18.34h7.76l2.58-11.26H183.26l-2.58,11.26h8.73l-12,51.7h-7.86L167,178.5h31.52l2.62-11.22h-8.67l5.19-22.35h36.51l-5.18,22.35h-7.66Z"/><path class="cls-2" d="M280.75,103H346.5l-6,26.21H322.73l2.79-12.27H304.17l-3.85,16.53H317.4L314,148.15H296.92l-4.15,17.79h20.07l3.09-13.63h17.8l-6.34,27.52H263.92l3.24-13.89H275l11.36-49h-8.82Z"/><path d="M328.46,181.17H262.23l3.87-16.56H274l10.73-46.35h-8.81l3.8-16.62h68.51l-6.65,28.89H321.05l2.79-12.27h-18.6L302,132.11h17.08l-4,17.38H298l-3.54,15.12h17.32l3.1-13.64h20.54Zm-62.85-2.67h60.72l5.72-24.85H317l-3.09,13.63H291.08l4.78-20.47h17.08l2.78-12H298.63l4.48-19.21h24.08l-2.78,12.27h15l5.41-23.53h-63l-2.58,11.26h8.82l-12,51.7h-7.86Z"/><path class="cls-2" d="M410.89,118.9l-49.38,47h21.8l3-13.08h17.64l-6.23,27H338.14l3.6-15.86,48.47-47H369.67l-3,13.28H349.24L355.58,103h59Z"/><path d="M398.77,181.17H336.46l4.06-17.89.29-.27,46.09-44.75H370.74l-3,13.28H347.56l7-29.9h61.7l-4.12,18-.29.28-46.95,44.74h17.38l3-13.08h20.4Zm-58.95-2.67h56.82l5.62-24.3H387.37l-3,13.08H358.16l51.51-49.07,3.19-13.89H356.64l-5.71,24.54h14.68l3-13.28h24.91L343,164.65Z"/><path class="cls-2" d="M450,165.94h4.26l-.81-10.59h-21.2l-5.62,10.59h6.44l-3.2,13.89h-31l3.2-13.89h6.49l34.93-63h22.1l5.78,63h9.74l-3.25,13.89h-31Zm-9.94-25.24h12.32l-1.52-20.38Z"/><path d="M478.92,181.17H445.15L449,164.61h3.88l-.6-7.92H433.09l-4.21,7.92h5.9L431,181.17H397.19L401,164.61h6.77l34.93-63h24.11l5.78,63h10.2Zm-30.4-2.67H476.8l2.62-11.22h-9.27l-5.78-63H444.28l-34.93,63h-6.22l-2.57,11.22h28.27l2.58-11.22h-7L431.48,154h23.24l1,13.27h-4.64ZM453.85,142h-16l14-26.45Zm-11.53-2.68H451L449.9,125Z"/></g></g></svg>