<svg 
xmlns="http://www.w3.org/2000/svg" 
viewBox="0 0 1612.16 953.74"
preserveAspectRatio="none"
>
    <defs>
        <style>
        .cls-1{fill:#7de2a8;}
        .cls-2{fill:#baf4d4;}
        .cls-3{fill:#dcffed;}
        </style>
    </defs>
    <title>pbk</title>
    <g id="Layer_2" data-name="Layer 2">
        <g id="Layer_1-2" data-name="Layer 1">
            <path class="cls-1" d="M1569.84,737.12c1.29-38,39.86-47.61,41.72-86.72-1.86-39.1-40.43-48.68-41.72-86.71,1.29-38,39.86-47.6,41.72-86.71-1.86-39.11-40.43-48.68-41.72-86.71,1.29-38,39.86-47.61,41.72-86.71-1.86-39.11-40.43-48.69-41.72-86.72,1.29-38,39.86-47.6,41.72-86.71-1.06-22.32-11.55-38.62-22.78-52.48L1529.56,26.7h-.2c-17.5-10.84-31.66-25.61-59-26.7-42.8,1.7-53.28,37-94.9,38.12C1333.84,37,1323.37,1.7,1280.57,0c-42.8,1.7-53.28,37-94.9,38.12h.63C1144.68,37,1134.2,1.7,1091.4,0c-42.8,1.7-53.28,37-94.9,38.12C954.88,37,944.4,1.7,901.6,0c-42.8,1.7-53.28,37-94.9,38.12C765.08,37,754.61,1.7,711.81,0c-42.8,1.7-53.28,37-94.9,38.12C575.29,37,564.81,1.7,522,0c-42.8,1.7-53.28,37-94.9,38.12C385.49,37,375,1.7,332.21,0c-42.8,1.7-53.28,37-94.9,38.12C195.69,37,185.22,1.7,142.42,0,118,1,100.15,10.56,85,20.81L29.22,74.92v.19C17.36,91.1,1.19,104,0,129c1.86,39.11,40.43,48.68,41.72,86.71-1.29,38-39.86,47.61-41.72,86.71,1.86,39.11,40.43,48.69,41.72,86.72-1.29,38-39.86,47.6-41.72,86.71C1.86,515,40.43,524.55,41.72,562.58c-1.29,38-39.86,47.6-41.72,86.71C1.86,688.4,40.43,698,41.72,736l.59.9C41,774.93,2.45,784.5.59,823.61c1.07,22.33,11.56,38.62,22.78,52.48L82.59,927h.2c17.51,10.84,31.66,25.62,59,26.7,42.8-1.7,53.28-36.94,94.9-38.12,41.62,1.18,52.1,36.42,94.9,38.12,42.8-1.7,53.28-36.94,94.9-38.12h-.63c41.62,1.18,52.1,36.42,94.9,38.12,42.8-1.7,53.27-36.94,94.89-38.12,41.62,1.18,52.1,36.42,94.9,38.12,42.8-1.7,53.28-36.94,94.9-38.12,41.62,1.18,52.1,36.42,94.9,38.12,42.8-1.7,53.28-36.94,94.9-38.12,41.62,1.18,52.1,36.42,94.9,38.12,42.8-1.7,53.27-36.94,94.89-38.12,41.62,1.18,52.1,36.42,94.9,38.12,42.8-1.7,53.28-36.94,94.9-38.12,41.62,1.18,52.1,36.42,94.9,38.12,24.43-1,42.26-10.55,57.43-20.81l55.76-54.11v-.19c11.87-16,28-28.92,29.23-53.91-1.87-39.1-40.44-48.68-41.73-86.71Z"/><path class="cls-2" d="M1547.12,722.15c1.25-35.84,38.57-44.86,40.37-81.72-1.8-36.86-39.12-45.89-40.37-81.73,1.25-35.84,38.57-44.87,40.37-81.73-1.8-36.86-39.12-45.88-40.37-81.72,1.25-35.85,38.57-44.87,40.37-81.73-1.8-36.86-39.12-45.88-40.37-81.73,1.25-35.84,38.57-44.86,40.37-81.72-1-21-11.18-36.4-22-49.47l-57.3-48h-.2c-16.93-10.21-30.63-24.14-57.08-25.16-41.42,1.6-51.55,34.82-91.83,35.93-40.27-1.11-50.41-34.33-91.82-35.93-41.41,1.6-51.55,34.82-91.82,35.93h.61c-40.27-1.11-50.41-34.33-91.83-35.93-41.41,1.6-51.55,34.82-91.82,35.93C952.09,62.24,942,29,900.54,27.42,859.12,29,849,62.24,808.71,63.35,768.44,62.24,758.3,29,716.89,27.42c-41.41,1.6-51.55,34.82-91.82,35.93C584.8,62.24,574.66,29,533.24,27.42c-41.41,1.6-51.55,34.82-91.82,35.93C401.15,62.24,391,29,349.6,27.42c-41.42,1.6-51.55,34.82-91.83,35.93C217.5,62.24,207.36,29,166,27.42c-23.64.91-40.89,9.95-55.57,19.61l-54,51v.18C45,113.28,29.3,125.47,28.15,149c1.8,36.86,39.12,45.88,40.37,81.72C67.27,266.59,30,275.61,28.15,312.47c1.8,36.86,39.12,45.89,40.37,81.73C67.27,430,30,439.07,28.15,475.93c1.8,36.85,39.12,45.88,40.37,81.72C67.27,593.5,30,602.52,28.15,639.38c1.8,36.86,39.12,45.88,40.37,81.73l.57.84c-1.24,35.84-38.57,44.87-40.37,81.73,1,21,11.18,36.39,22,49.46l57.3,48h.2c16.94,10.21,30.63,24.14,57.09,25.16,41.41-1.6,51.55-34.82,91.82-35.92,40.27,1.1,50.41,34.32,91.82,35.92,41.42-1.6,51.56-34.82,91.83-35.92h-.61c40.27,1.1,50.41,34.32,91.82,35.92,41.41-1.6,51.55-34.82,91.82-35.92,40.28,1.1,50.42,34.32,91.83,35.92,41.41-1.6,51.55-34.82,91.82-35.92,40.27,1.1,50.41,34.32,91.82,35.92,41.42-1.6,51.56-34.82,91.83-35.92,40.27,1.1,50.41,34.32,91.82,35.92,41.41-1.6,51.55-34.82,91.82-35.92,40.28,1.1,50.41,34.32,91.83,35.92,41.41-1.6,51.55-34.82,91.82-35.92,40.27,1.1,50.41,34.32,91.82,35.92,23.64-.91,40.9-9.94,55.58-19.61l54-51v-.18c11.48-15.07,27.13-27.26,28.28-50.81-1.81-36.86-39.13-45.88-40.37-81.72Z"/><path class="cls-3" d="M1516.19,702.09c1.19-33.06,37-41.38,38.75-75.38-1.73-34-37.56-42.31-38.75-75.37,1.19-33.06,37-41.38,38.75-75.38-1.73-34-37.56-42.32-38.75-75.38,1.19-33.05,37-41.38,38.75-75.37-1.73-34-37.56-42.32-38.75-75.38,1.19-33.06,37-41.38,38.75-75.37-1-19.41-10.73-33.57-21.16-45.62l-55-44.29h-.19c-16.26-9.42-29.41-22.27-54.8-23.21-39.76,1.48-49.49,32.11-88.15,33.14-38.66-1-48.39-31.66-88.15-33.14-39.75,1.48-49.48,32.11-88.14,33.14h.58c-38.66-1-48.39-31.66-88.14-33.14-39.76,1.48-49.49,32.11-88.15,33.14-38.66-1-48.39-31.66-88.15-33.14C855.74,62.82,846,93.45,807.35,94.48c-38.66-1-48.39-31.66-88.15-33.14-39.75,1.48-49.48,32.11-88.14,33.14-38.66-1-48.4-31.66-88.15-33.14-39.75,1.48-49.49,32.11-88.15,33.14-38.65-1-48.39-31.66-88.14-33.14-39.76,1.48-49.49,32.11-88.15,33.14-38.66-1-48.39-31.66-88.14-33.14-22.7.84-39.26,9.17-53.35,18.09l-51.79,47v.16c-11,13.9-26,25.14-27.15,46.86,1.73,34,37.56,42.32,38.76,75.38-1.2,33.05-37,41.38-38.76,75.37,1.73,34,37.56,42.32,38.76,75.38C95.6,432.68,59.77,441,58,475c1.73,34,37.56,42.32,38.76,75.38-1.2,33.06-37,41.38-38.76,75.38,1.73,34,37.56,42.31,38.76,75.37l.55.78c-1.2,33.06-37,41.38-38.75,75.38,1,19.4,10.73,33.56,21.15,45.62l55,44.28H135c16.26,9.43,29.4,22.27,54.8,23.21,39.75-1.47,49.48-32.11,88.14-33.13,38.66,1,48.39,31.66,88.15,33.13,39.75-1.47,49.49-32.11,88.15-33.13h-.59c38.66,1,48.39,31.66,88.15,33.13,39.75-1.47,49.48-32.11,88.14-33.13,38.66,1,48.39,31.66,88.15,33.13,39.75-1.47,49.49-32.11,88.14-33.13,38.66,1,48.4,31.66,88.15,33.13,39.76-1.47,49.49-32.11,88.15-33.13,38.66,1,48.39,31.66,88.14,33.13,39.76-1.47,49.49-32.11,88.15-33.13,38.66,1,48.39,31.66,88.14,33.13,39.76-1.47,49.49-32.11,88.15-33.13,38.66,1,48.39,31.66,88.15,33.13,22.69-.84,39.25-9.17,53.35-18.09l51.79-47v-.16c11-13.91,26-25.15,27.14-46.87-1.73-34-37.56-42.31-38.75-75.37Z"/>
        </g>
    </g>
</svg>