<svg xmlns="http://www.w3.org/2000/svg" viewBox="0 0 548.56 987.26" preserveAspectRatio="none"><defs><style>.cls-1{fill:#7de2a8;}.cls-2{fill:#baf4d4;}.cls-3{fill:#dcffed;}</style></defs><title>pbkm</title><g id="Layer_2" data-name="Layer 2"><g id="Layer_1-2" data-name="Layer 1"><path class="cls-1" d="M424,25.91C402.09,25.13,396.59,1.5,374.09.36c-22.49,1.14-28,24.77-49.87,25.55C302.35,25.13,296.84,1.5,274.34.36c-22.49,1.14-28,24.77-49.87,25.55C202.6,25.13,197.09,1.5,174.6.36c-22.5,1.14-28,24.77-49.88,25.55C102.85,25.13,97.34,1.5,74.85.36,62,1,52.64,7.44,44.66,14.31L15.36,50.58v.12C9.12,61.42.62,70.09,0,86.83,1,113,21.25,119.46,21.93,145,21.25,170.43,1,176.85,0,203.06c1,26.21,21.25,32.63,21.93,58.12v-.39C21.25,286.28,1,292.69,0,318.9,1,345.11,21.25,351.53,21.93,377,21.25,402.51,1,408.92,0,435.13c1,26.21,21.25,32.63,21.93,58.12C21.25,518.74,1,525.15,0,551.36,1,577.57,21.25,584,21.93,609.48,21.25,635,1,641.38,0,667.59c1,26.21,21.25,32.63,21.93,58.12C21.25,751.19,1,757.61,0,783.82,1,810,21.25,816.45,21.93,841.93,21.25,867.42,1,873.84,0,900.05c.56,15,6.07,25.88,12,35.17l31.12,34.15h.11c9.2,7.26,16.64,17.17,31,17.89,22.49-1.14,28-24.76,49.87-25.55,21.88.79,27.38,24.41,49.88,25.55,22.49-1.14,28-24.76,49.87-25.55,21.87.79,27.38,24.41,49.87,25.55,22.5-1.14,28-24.76,49.88-25.55,21.87.79,27.38,24.41,49.87,25.55,22.5-1.14,28-24.76,49.88-25.55l.51-.36c21.88.79,27.38,24.41,49.88,25.55,12.84-.65,22.21-7.08,30.18-13.95l29.31-36.26v-.13c6.23-10.72,14.73-19.39,15.35-36.13-1-26.21-21.25-32.63-21.92-58.11.67-25.49,21-31.91,21.92-58.12-1-26.21-21.25-32.62-21.92-58.11v.38c.67-25.48,21-31.9,21.92-58.11-1-26.21-21.25-32.63-21.92-58.12.67-25.48,21-31.9,21.92-58.11-1-26.21-21.25-32.63-21.92-58.11.67-25.49,21-31.91,21.92-58.12-1-26.21-21.25-32.63-21.92-58.11.67-25.49,21-31.91,21.92-58.12-1-26.21-21.25-32.63-21.92-58.11.67-25.49,21-31.91,21.92-58.12-1-26.21-21.25-32.62-21.92-58.11.67-25.49,21-31.91,21.92-58.12-.55-15-6.07-25.88-12-35.17L505.47,17.89h-.11c-9.2-7.26-16.63-17.16-31-17.89-22.5,1.14-28,24.76-49.88,25.55Z"/><path class="cls-2" d="M415.36,39.83c-20.61-.77-25.81-23.62-47-24.73-21.2,1.11-26.39,24-47,24.73-20.62-.77-25.81-23.62-47-24.73-21.2,1.11-26.39,24-47,24.73-20.61-.77-25.8-23.62-47-24.73-21.2,1.11-26.39,24-47,24.73-20.62-.77-25.81-23.62-47-24.73-12.1.63-20.93,6.85-28.45,13.5L30.24,63.69v.12c-5.87,10.37-13.88,18.76-14.47,35,.92,25.36,20,31.57,20.67,56.23-.64,24.66-19.75,30.87-20.67,56.23.92,25.36,20,31.57,20.67,56.23v-.37C35.8,291.75,16.69,298,15.77,323.32c.92,25.36,20,31.57,20.67,56.23-.64,24.67-19.75,30.88-20.67,56.24.92,25.36,20,31.57,20.67,56.23-.64,24.66-19.75,30.87-20.67,56.23.92,25.36,20,31.57,20.67,56.23-.64,24.66-19.75,30.87-20.67,56.23.92,25.36,20,31.57,20.67,56.23-.64,24.66-19.75,30.87-20.67,56.23.92,25.36,20,31.57,20.67,56.24-.64,24.66-19.75,30.87-20.67,56.23.53,14.47,5.72,25,11.28,34l29.34,33h.1c8.67,7,15.68,16.61,29.22,17.31,21.2-1.1,26.39-23.95,47-24.72,20.61.77,25.8,23.62,47,24.72,21.2-1.1,26.4-23.95,47-24.72,20.62.77,25.81,23.62,47,24.72,21.2-1.1,26.39-23.95,47-24.72,20.62.77,25.81,23.62,47,24.72,21.2-1.1,26.39-23.95,47-24.72l.48-.35c20.62.76,25.81,23.62,47,24.72,12.1-.63,20.93-6.84,28.45-13.49l27.62-35.09V921c5.88-10.38,13.89-18.76,14.47-35-.92-25.36-20-31.57-20.66-56.24.64-24.66,19.74-30.87,20.66-56.23-.92-25.36-20-31.57-20.66-56.23v.38c.64-24.67,19.74-30.88,20.66-56.24-.92-25.36-20-31.57-20.66-56.23.64-24.66,19.74-30.87,20.66-56.23-.92-25.36-20-31.57-20.66-56.23.64-24.66,19.74-30.87,20.66-56.23-.92-25.36-20-31.57-20.66-56.23.64-24.66,19.74-30.87,20.66-56.23-.92-25.36-20-31.57-20.66-56.24.64-24.66,19.74-30.87,20.66-56.23-.92-25.36-20-31.57-20.66-56.23.64-24.66,19.74-30.87,20.66-56.23-.52-14.48-5.72-25-11.28-34l-29.33-33h-.1c-8.67-7-15.68-16.61-29.23-17.32-21.2,1.1-26.39,24-47,24.72Z"/><path class="cls-3" d="M403.82,58.77C384.81,58,380,36.1,360.47,35c-19.56,1.06-24.34,23-43.36,23.73C298.1,58,293.31,36.1,273.76,35c-19.55,1.06-24.34,23-43.36,23.73C211.39,58,206.6,36.1,187.05,35,167.5,36.1,162.71,58,143.7,58.77,124.68,58,119.9,36.1,100.34,35,89.18,35.64,81,41.61,74.1,48L48.63,81.68v.12c-5.42,10-12.81,18-13.35,33.55.85,24.35,18.47,30.31,19.06,54-.59,23.68-18.21,29.64-19.06,54,.85,24.35,18.47,30.31,19.06,54v-.35c-.59,23.67-18.21,29.63-19.06,54,.85,24.35,18.47,30.31,19.06,54-.59,23.68-18.21,29.64-19.06,54,.85,24.35,18.47,30.31,19.06,54-.59,23.68-18.21,29.64-19.06,54,.85,24.35,18.47,30.31,19.06,54-.59,23.68-18.21,29.64-19.06,54,.85,24.35,18.47,30.31,19.06,54-.59,23.68-18.21,29.64-19.06,54,.85,24.35,18.47,30.31,19.06,54-.59,23.67-18.21,29.63-19.06,54,.49,13.9,5.28,24,10.41,32.67L72.74,935.1h.09c8,6.74,14.47,15.94,27,16.62,19.55-1.06,24.34-23,43.35-23.73,19,.73,23.8,22.67,43.35,23.73,19.56-1.06,24.34-23,43.36-23.73,19,.73,23.8,22.67,43.35,23.73,19.56-1.06,24.34-23,43.36-23.73,19,.73,23.8,22.67,43.35,23.73,19.55-1.06,24.34-23,43.35-23.73l.45-.34c19,.73,23.8,22.67,43.36,23.73,11.16-.6,19.3-6.57,26.23-13l25.48-33.68v-.12c5.42-10,12.81-18,13.35-33.56-.85-24.34-18.47-30.3-19.06-54,.59-23.67,18.21-29.63,19.06-54-.85-24.35-18.47-30.31-19.06-54v.35c.59-23.67,18.21-29.63,19.06-54-.85-24.34-18.47-30.3-19.06-54,.59-23.67,18.21-29.63,19.06-54-.85-24.35-18.47-30.31-19.06-54,.59-23.68,18.21-29.64,19.06-54-.85-24.35-18.47-30.31-19.06-54,.59-23.68,18.21-29.64,19.06-54-.85-24.35-18.47-30.31-19.06-54,.59-23.68,18.21-29.64,19.06-54-.85-24.35-18.47-30.31-19.06-54,.59-23.68,18.21-29.64,19.06-54-.49-13.9-5.28-24-10.41-32.67L474.67,51.32h-.09c-8-6.74-14.47-15.94-27-16.62-19.55,1.06-24.34,23-43.35,23.73Z"/></g></g></svg>