<svg xmlns="http://www.w3.org/2000/svg" viewBox="0 0 378.01 41.19"><title>cannon-es</title><g id="Layer_2" data-name="Layer 2"><g id="Layer_1-2" data-name="Layer 1"><path d="M36.67,12.54,26.39,14.4A7.52,7.52,0,0,0,24,9.76,7.13,7.13,0,0,0,19.26,8.2,7.81,7.81,0,0,0,13,10.89c-1.54,1.8-2.32,4.8-2.32,9q0,7,2.36,9.91a7.73,7.73,0,0,0,6.33,2.89A7,7,0,0,0,24.27,31q1.89-1.7,2.67-5.81l10.24,1.74Q35.59,34,31.06,37.59t-12.13,3.6q-8.65,0-13.79-5.45T0,20.63Q0,10.88,5.16,5.44T19.11,0q7.2,0,11.45,3.1T36.67,12.54Z"/><path d="M52.36,12.91l-9.46-1.7a14.7,14.7,0,0,1,5.49-8.46Q52.29,0,60,0q7,0,10.39,1.65a10.38,10.38,0,0,1,4.81,4.19q1.39,2.55,1.39,9.34l-.11,12.17A41.68,41.68,0,0,0,77,35a22.34,22.34,0,0,0,1.87,5.29H68.51c-.28-.69-.61-1.72-1-3.08-.17-.62-.29-1-.37-1.22a18.65,18.65,0,0,1-5.71,3.89,16.33,16.33,0,0,1-6.5,1.3q-6.08,0-9.59-3.3a11,11,0,0,1-3.51-8.35,11.27,11.27,0,0,1,1.6-6,10.35,10.35,0,0,1,4.47-4,34.7,34.7,0,0,1,8.3-2.43,56.35,56.35,0,0,0,10.13-2.57v-1c0-2-.5-3.44-1.49-4.29S62,8,59.23,8a7.45,7.45,0,0,0-4.34,1.09A7.65,7.65,0,0,0,52.36,12.91Zm14,8.47c-1.34.44-3.45,1-6.35,1.59a19.33,19.33,0,0,0-5.68,1.82,4.34,4.34,0,0,0-2,3.67,5.15,5.15,0,0,0,1.63,3.79A5.73,5.73,0,0,0,58,33.84,9,9,0,0,0,63.42,32a6.57,6.57,0,0,0,2.49-3.45,20.72,20.72,0,0,0,.41-5.09Z"/><path d="M122.69,40.3H112.26V20.19q0-6.39-.67-8.26A5.75,5.75,0,0,0,109.42,9a6.23,6.23,0,0,0-3.62-1,8.38,8.38,0,0,0-4.86,1.48,7.48,7.48,0,0,0-3,3.94q-.8,2.44-.8,9V40.3H86.76V.89h9.69V6.68Q101.61,0,109.44,0a15.65,15.65,0,0,1,6.31,1.24,10.6,10.6,0,0,1,4.32,3.18,11.31,11.31,0,0,1,2,4.38,32.06,32.06,0,0,1,.58,7Z"/><path d="M169.11,40.3H158.68V20.19q0-6.39-.66-8.26A5.8,5.8,0,0,0,155.85,9a6.25,6.25,0,0,0-3.62-1,8.33,8.33,0,0,0-4.86,1.48,7.43,7.43,0,0,0-3,3.94c-.54,1.63-.8,4.65-.8,9V40.3H133.19V.89h9.69V6.68Q148,0,155.86,0a15.58,15.58,0,0,1,6.31,1.24,10.57,10.57,0,0,1,4.33,3.18,11.61,11.61,0,0,1,2,4.38,32.82,32.82,0,0,1,.57,7Z"/><path d="M177.28,20A21.3,21.3,0,0,1,179.84,10a17.54,17.54,0,0,1,7.25-7.42A21.52,21.52,0,0,1,197.58,0a19.69,19.69,0,0,1,14.66,5.81A20.05,20.05,0,0,1,218,20.49a20.28,20.28,0,0,1-5.77,14.82,19.51,19.51,0,0,1-14.53,5.88,22.75,22.75,0,0,1-10.33-2.45,16.72,16.72,0,0,1-7.48-7.18A23.86,23.86,0,0,1,177.28,20ZM188,20.6q0,5.87,2.79,9a9.11,9.11,0,0,0,13.71,0c1.84-2.08,2.77-5.1,2.77-9.06s-.93-6.83-2.77-8.9a9.09,9.09,0,0,0-13.71,0C188.89,13.69,188,16.69,188,20.6Z"/><path d="M262,40.3H251.54V20.19c0-4.26-.23-7-.67-8.26A5.8,5.8,0,0,0,248.7,9a6.25,6.25,0,0,0-3.62-1,8.33,8.33,0,0,0-4.86,1.48,7.43,7.43,0,0,0-2.95,3.94c-.54,1.63-.8,4.65-.8,9V40.3H226V.89h9.69V6.68Q240.88,0,248.71,0A15.58,15.58,0,0,1,255,1.24a10.57,10.57,0,0,1,4.33,3.18,11.61,11.61,0,0,1,2,4.38,32.82,32.82,0,0,1,.57,7Z"/><path d="M271.35,25.79V15.36h20.49V25.79Z"/><path d="M325.42,27.76l10.39,1.74a17.07,17.07,0,0,1-6.32,8.71,18.62,18.62,0,0,1-10.82,3q-10.28,0-15.22-6.71-3.88-5.38-3.89-13.59,0-9.8,5.12-15.34A16.85,16.85,0,0,1,317.63,0q8.79,0,13.88,5.81t4.86,17.79H310.24a10.58,10.58,0,0,0,2.53,7.22,7.89,7.89,0,0,0,6,2.58,6.39,6.39,0,0,0,4.12-1.34A8.25,8.25,0,0,0,325.42,27.76Zm.6-10.54q-.12-4.53-2.34-6.88a7.52,7.52,0,0,0-11.06.13,9.54,9.54,0,0,0-2.19,6.75Z"/><path d="M341.19,29.06l10.47-1.6a7.64,7.64,0,0,0,2.71,4.62,9.15,9.15,0,0,0,5.71,1.58q4.05,0,6.09-1.49a3.32,3.32,0,0,0,1.37-2.78,2.73,2.73,0,0,0-.74-2,8.36,8.36,0,0,0-3.49-1.37q-12.62-2.78-16-5.08a10.16,10.16,0,0,1-4.68-8.87,10.91,10.91,0,0,1,4.05-8.61Q350.73,0,359.23,0q8.08,0,12,2.63a13.46,13.46,0,0,1,5.42,7.8l-9.83,1.82a6.07,6.07,0,0,0-2.4-3.53,8.7,8.7,0,0,0-5-1.22q-4.12,0-5.91,1.15a2.46,2.46,0,0,0-1.18,2.11,2.27,2.27,0,0,0,1,1.89c.94.7,4.18,1.67,9.74,2.94s9.43,2.8,11.63,4.64A9.62,9.62,0,0,1,378,28a11.92,11.92,0,0,1-4.53,9.32q-4.53,3.89-13.4,3.89-8.06,0-12.74-3.26A15.11,15.11,0,0,1,341.19,29.06Z"/></g></g></svg>