<svg xmlns="http://www.w3.org/2000/svg" viewBox="0 0 429.03 429"><defs><style>.cls-1{fill:#fff;}.cls-2,.cls-3{fill:#00d1c1;}.cls-3,.cls-4{fill-rule:evenodd;}.cls-4{fill:#007986;}</style></defs><title>lottie</title><g id="Layer_2" data-name="Layer 2"><g id="Layer_2-2" data-name="Layer 2"><rect class="cls-1" width="429" height="429" rx="89.83" ry="89.83"/><circle class="cls-2" cx="106.5" cy="65.5" r="16.5"/><rect class="cls-2" x="144.7" y="73.06" width="31.07" height="62.37" rx="15.27" ry="15.27" transform="translate(-25.71 148.61) rotate(-46.47)"/><path class="cls-3" d="M230.5,208.5c-1.48-27.33-9-44-19-63-4-8-13-11-22-7-19,16,3,25,9,70C208.83,208.17,220.17,208.83,230.5,208.5Zm-30,30c-3,39-13,85-50,105-16.92,9.15-33.26-.35-40,7-11,12-4.78,20.5,0,27,78.34,18.71,120.1-68.88,122-139Z"/><path class="cls-4" d="M76.5,256.5c-37.66,46-22,105,31,120.5h3c-10-10.5-8-25.5,7-29.5-10-3-22.09-11.07-27-21.5-10-21.25,5.23-43.22,14-53,31.13-34.71,93.88-36.2,161-35V208C175.5,207.5,112.5,212.5,76.5,256.5Zm209-19.5,55,1V208h-55Zm143-25-69-3v30c22.33.67,46.67,1.83,69,2.5C429.5,236.5,428.83,220.48,428.5,212Z"/></g></g></svg>