<svg 
xmlns="http://www.w3.org/2000/svg" 
viewBox="0 0 72.31 64.34">
<defs>
<style>
.cls-1{fill:#61dafb;}
</style>
</defs>
<title>react</title>
<g id="Layer_2" data-name="Layer 2">
<g id="Layer_1-2" data-name="Layer 1">
<path class="cls-1" 
d="M59.46,20.85h0c-.77-.26-1.55-.51-2.33-.73q.19-.8.36-1.59C59.25,10,58.1,3.09,54.16.82,50.39-1.36,44.22.91,38,6.33c-.61.54-1.21,1.09-1.8,1.66Q35.6,7.42,35,6.88c-6.53-5.8-13.07-8.24-17-6-3.77,2.18-4.89,8.66-3.3,16.77.16.8.33,1.6.53,2.39-.92.27-1.82.55-2.67.85C4.89,23.59,0,27.77,0,32.11s5.25,9,13.22,11.7c.65.22,1.3.42,2,.61q-.31,1.29-.57,2.58C13.1,55,14.28,61.29,18,63.46s10.4-.06,16.74-5.61c.5-.44,1-.9,1.51-1.39.63.62,1.29,1.21,2,1.79,6.15,5.28,12.22,7.42,16,5.25s5.14-9,3.5-17.31c-.13-.63-.27-1.28-.44-1.93l1.35-.42c8.29-2.75,13.68-7.19,13.68-11.73C72.31,27.75,67.27,23.54,59.46,20.85ZM40,8.66C45.36,4,50.35,2.18,52.62,3.5h0c2.42,1.39,3.36,7,1.84,14.41-.1.48-.21,1-.32,1.44a72,72,0,0,0-9.67-1.53,73.7,73.7,0,0,0-6.11-7.63C38.9,9.67,39.45,9.16,40,8.66ZM21.35,35.81c.66,1.27,1.34,2.52,2,3.75s1.49,2.49,2.27,3.71A65,65,0,0,1,19,42.2C19.65,40.14,20.43,38,21.35,35.81Zm0-7.26c-.9-2.13-1.67-4.23-2.3-6.26,2.06-.46,4.26-.84,6.56-1.12-.77,1.19-1.51,2.41-2.22,3.64S22,27.29,21.35,28.55ZM23,32.18q1.43-3,3.08-5.83h0q1.63-2.85,3.5-5.58c2.15-.16,4.36-.25,6.59-.25s4.44.09,6.59.25c1.23,1.82,2.39,3.67,3.49,5.57s2.14,3.83,3.12,5.8q-1.45,3-3.11,5.85h0c-1.1,1.9-2.25,3.77-3.47,5.6q-3.22.22-6.62.23c-2.25,0-4.44-.07-6.55-.21q-1.87-2.73-3.53-5.6C25,36.11,24,34.16,23,32.18Zm25.93,7.36c.73-1.27,1.43-2.54,2.1-3.84h0a65.25,65.25,0,0,1,2.43,6.37,64.25,64.25,0,0,1-6.75,1.14c.77-1.21,1.51-2.43,2.22-3.67Zm2.07-11c-.67-1.27-1.36-2.52-2.08-3.76h0c-.71-1.22-1.44-2.43-2.2-3.62,2.31.29,4.52.68,6.6,1.15A64.6,64.6,0,0,1,51,28.55ZM36.19,12.4a63.45,63.45,0,0,1,4.26,5.14q-4.28-.21-8.55,0A66.44,66.44,0,0,1,36.19,12.4ZM19.53,3.59c2.42-1.4,7.77.59,13.41,5.6.36.32.72.65,1.09,1a73.8,73.8,0,0,0-6.16,7.62,78.38,78.38,0,0,0-9.65,1.5c-.19-.73-.35-1.48-.5-2.22h0C16.36,10.14,17.26,4.9,19.53,3.59ZM16,41.45c-.6-.18-1.2-.36-1.79-.56a26.24,26.24,0,0,1-8.43-4.48,6.4,6.4,0,0,1-2.7-4.3c0-2.63,3.92-6,10.47-8.28q1.23-.42,2.49-.78a72.65,72.65,0,0,0,3.53,9.13A73.27,73.27,0,0,0,16,41.45ZM32.75,55.53a26.06,26.06,0,0,1-8.1,5.06h0a6.35,6.35,0,0,1-5.07.2c-2.28-1.32-3.23-6.4-1.93-13.21.15-.81.33-1.61.52-2.4a72.93,72.93,0,0,0,9.75,1.41,74.86,74.86,0,0,0,6.21,7.67C33.68,54.69,33.22,55.12,32.75,55.53ZM36.28,52a66.59,66.59,0,0,1-4.35-5.21c1.38.05,2.79.08,4.23.08s2.93,0,4.36-.1A64.54,64.54,0,0,1,36.28,52ZM55,56.33a6.42,6.42,0,0,1-2.37,4.49c-2.28,1.32-7.15-.39-12.41-4.92-.6-.51-1.21-1.07-1.82-1.65a72.49,72.49,0,0,0,6.06-7.7A72,72,0,0,0,54.3,45c.14.6.27,1.18.39,1.75h0A26.17,26.17,0,0,1,55,56.33ZM57.66,40.9h0c-.4.14-.8.26-1.22.38a72.26,72.26,0,0,0-3.66-9.16,72.62,72.62,0,0,0,3.52-9c.74.21,1.46.44,2.15.67,6.69,2.31,10.77,5.71,10.77,8.34,0,2.79-4.4,6.42-11.56,8.79Z"/>
<path class="cls-1" d="M36.16,25.65a6.46,6.46,0,1,1-6.46,6.46h0a6.46,6.46,0,0,1,6.46-6.46h0"/>
</g>
</g>
</svg>